<?xml version="1.0" standalone="no"?><!DOCTYPE svg PUBLIC "-//W3C//DTD SVG 1.1//EN" "http://www.w3.org/Graphics/SVG/1.1/DTD/svg11.dtd" ><svg xmlns="http://www.w3.org/2000/svg"><metadata></metadata><defs><font id="Founder:FZYaSong-DB1-GBK	Regular" horiz-adv-x="256"><font-face font-family="FZYaSong-DB1-GBK" font-weight="400" font-stretch="normal" units-per-em="256" panose-1="2 0 0 0 0 0 0 0 0 0" ascent="243" descent="-70" x-height="0" bbox="4 -29 253 210" underline-thickness="12" underline-position="-58" unicode-range="U+004e-9c9c" /><missing-glyph horiz-adv-x="256" d="M65 -13 q-20 1 -21 20 q1 20 21 21 q21 -1 22 -21 q-2 -18 -22 -20 ZM71 50 l-11 0 q-3 57 -12 91 q-5 25 -5 35 q0 18 23 18 q22 0 22 -18 q0 -13 -6 -35 q-8 -43 -11 -91 Z" /><glyph glyph-name="" unicode="n" d="M7 -9 l0 10 q29 -4 26 38 l0 107 q2 36 -25 32 l0 12 l53 0 l103 -151 l0 101 q3 43 -28 38 l0 12 l66 0 l0 -12 q-29 5 -26 -38 l0 -149 l-19 0 l-112 163 l0 -115 q-4 -42 28 -38 l0 -10 l-66 0 Z" /><glyph glyph-name="" unicode="&#x4e0b;" d="M197 60 q-8 1 -11 8 q-23 39 -52 59 l0 -66 q0 -4 0 -21 q1 -35 1 -55 q0 -6 -6 -7 q-16 -2 -27 -2 q0 7 1 22 q1 50 1 62 l0 115 l-95 0 l0 7 l191 0 l17 23 l30 -22 q2 -1 2 -4 q-2 -4 -9 -4 l-106 0 l0 -41 q77 -19 82 -51 q0 -20 -19 -23 Z" /><glyph glyph-name="" unicode="&#x4e13;" d="M176 -26 q-8 0 -15 6 q-42 32 -100 51 l2 4 q42 -3 71 -10 l28 42 l-63 0 l-9 -12 q-17 6 -30 13 q-4 3 0 6 q8 4 10 14 l5 21 l-64 0 l0 7 l66 0 l9 39 l-58 0 l0 6 l60 0 l3 14 q3 16 3 31 l41 -7 q4 -1 4 -4 q-1 -6 -13 -8 l-7 -26 l64 0 l15 20 l27 -19 q2 -1 2 -3 q-1 -3 -8 -4 l-101 0 l-10 -39 l91 0 l16 21 l28 -20 q3 -1 3 -3 q-2 -4 -9 -5 l-131 0 l-9 -35 l64 0 l13 15 l33 -21 q3 -1 3 -4 q0 -7 -14 -7 q-21 -20 -50 -35 q44 -13 46 -30 q-1 -16 -16 -18 Z" /><glyph glyph-name="" unicode="&#x4e3b;" d="M19 145 l0 7 l172 0 l17 23 l30 -22 q0 0 1 -1 q0 -1 0 -2 q0 -4 -7 -5 l-89 0 l0 -66 l35 0 l17 23 l28 -22 q2 -1 2 -3 q0 -3 -8 -4 l-74 0 l0 -79 l55 0 l18 22 l30 -21 q2 -2 2 -3 q0 -4 -7 -4 l-233 0 l0 6 l103 0 l0 79 l-75 0 l0 6 l75 0 l0 66 l-92 0 ZM125 155 q-11 0 -14 12 q-6 22 -19 39 l1 2 q55 -7 54 -31 q-2 -20 -22 -22 Z" /><glyph glyph-name="" unicode="&#x4e66;" d="M92 -24 q1 37 1 84 l0 14 l-80 0 l0 6 l80 0 l0 64 l-62 0 l0 7 l62 0 l0 1 q0 32 -1 54 l37 -3 q4 0 5 -3 q1 -6 -11 -10 l0 -39 l45 0 l9 16 l30 -13 q3 -2 3 -4 q0 -5 -11 -10 l-3 -60 l3 0 l10 18 l33 -14 q2 -1 2 -4 q1 -5 -12 -11 q0 -15 -2 -41 q-3 -34 -50 -36 q-1 23 -30 28 l1 4 l35 -1 q13 -2 14 13 q3 16 3 38 l-80 0 l0 -12 q0 -41 1 -77 q1 -6 -5 -7 q-16 -2 -27 -2 ZM172 144 l-49 0 l0 -64 l46 0 l3 64 ZM230 144 q-6 -1 -13 9 q-17 23 -48 43 l1 3 q75 -8 75 -36 q-1 -17 -15 -19 Z" /><glyph glyph-name="" unicode="&#x4e8b;" d="M11 172 l0 6 l100 0 q0 16 0 28 l36 -4 q5 0 5 -3 q-1 -6 -12 -9 l0 -12 l59 0 l17 21 l28 -20 q3 -1 2 -3 q0 -3 -8 -4 l-98 0 l0 -19 l42 0 l8 14 l28 -10 q4 -3 4 -4 q0 -5 -10 -11 l0 -6 q0 -2 0 -9 q1 -10 1 -13 q0 -4 -5 -6 q-7 -2 -16 -2 l29 -11 q4 -2 4 -4 q1 -4 -11 -11 l0 -14 l0 -4 l2 0 l12 16 l22 -16 q1 -1 1 -3 q0 -3 -8 -3 l-29 0 q1 -14 1 -40 q0 -6 -4 -6 q-10 -2 -25 -2 l0 17 l-45 0 q1 -15 1 -25 q1 -22 -45 -27 q-1 25 -34 30 l1 3 l35 -2 q13 0 13 12 l0 9 l-85 0 l0 6 l85 0 l0 25 l-104 0 l0 6 l104 0 l0 24 l-84 0 l0 6 l84 0 l0 21 l-45 0 l0 -4 q1 -6 -5 -6 q-14 -2 -24 -2 q1 8 1 30 l0 30 l34 -8 l39 0 l0 8 q0 7 -1 11 l-100 0 ZM185 147 l-45 0 l0 -28 l45 0 l0 28 ZM67 147 l0 -28 l45 0 l0 28 l-45 0 ZM141 56 q0 -12 0 -25 l45 0 l0 25 l-45 0 ZM186 86 l-46 0 q0 -3 0 -10 q1 -9 1 -14 l45 0 l0 24 ZM185 106 l0 7 l-45 0 l0 -17 l0 -4 l43 0 l7 14 l-5 0 Z" /><glyph glyph-name="" unicode="&#x4e8c;" d="M30 160 l0 7 l138 0 l19 25 l34 -25 q1 -1 1 -3 q1 -3 -8 -4 l-184 0 ZM9 6 l0 7 l179 0 l21 28 l35 -27 q3 -1 3 -3 q-2 -4 -8 -5 l-230 0 Z" /><glyph glyph-name="" unicode="&#x4eba;" d="M211 -22 q-66 50 -80 169 q-5 -128 -122 -173 l-3 4 q91 69 94 183 q0 3 0 9 q1 21 -1 33 l44 -5 q4 0 4 -3 q0 -6 -13 -11 q0 -4 -1 -9 q31 -124 118 -165 l-2 -5 q-21 0 -38 -27 Z" /><glyph glyph-name="" unicode="&#x4ed9;" d="M109 -12 q-15 8 -25 13 q-3 2 0 6 q6 2 6 10 l0 73 q0 18 0 60 l31 -3 q4 0 5 -3 q0 -5 -9 -9 l0 -130 l30 0 l0 131 q0 36 -1 67 l35 -3 q5 0 5 -3 q1 -4 -11 -9 l0 -183 l32 0 l0 83 q0 41 -1 64 l32 -3 q4 0 5 -3 q0 -4 -10 -9 l0 -80 q0 -4 0 -18 q1 -31 1 -52 q1 -7 -5 -8 q-11 -2 -22 -2 l0 23 l-89 0 l-9 -12 ZM35 -25 q1 39 1 94 l0 34 q-12 -17 -28 -32 l-2 2 q27 52 38 101 q5 16 6 32 l38 -8 q5 -1 5 -4 q0 -6 -13 -8 q-8 -23 -21 -48 l10 -2 q4 0 4 -3 q1 -4 -9 -9 l0 -138 q0 -8 -7 -9 q-12 -2 -22 -2 Z" /><glyph glyph-name="" unicode="&#x4ee3;" d="M81 118 l0 6 l52 4 q-2 14 -2 29 q-1 8 -1 24 q-1 15 -1 23 l36 -3 q4 -1 4 -4 q0 -5 -10 -9 q0 -33 3 -58 l39 4 l14 19 l28 -16 q3 -1 3 -3 q0 -3 -7 -4 l-77 -6 q8 -71 51 -105 q5 -3 7 4 l18 46 l4 -1 l-2 -50 q-1 -8 3 -14 q6 -4 6 -10 q-2 -17 -19 -18 q-17 0 -41 21 q-45 40 -55 125 l-53 -4 ZM41 -24 q1 38 1 93 l0 37 q-15 -19 -34 -35 l-2 2 q34 55 47 101 q5 17 7 32 l39 -9 q4 -1 4 -4 q0 -5 -13 -8 q-10 -23 -22 -44 l8 -1 q4 0 4 -4 q0 -4 -9 -8 l0 -141 q1 -9 -6 -9 q-12 -2 -24 -2 ZM206 152 q-7 0 -11 9 q-7 17 -21 30 l1 3 q46 -4 47 -24 q-1 -16 -16 -18 Z" /><glyph glyph-name="" unicode="&#x4ee4;" d="M222 91 q-61 27 -92 87 q-15 -22 -33 -41 q48 -11 47 -33 q-1 -19 -20 -20 q-9 0 -12 11 q-6 21 -19 39 q-35 -31 -83 -50 l-3 4 q56 43 84 89 q9 16 14 31 l40 -10 q4 -1 4 -4 q-1 -7 -14 -7 q0 -1 0 -1 q47 -48 116 -61 l-1 -5 q-19 -5 -28 -29 ZM148 -27 q-8 0 -15 9 q-26 30 -76 57 l1 3 q45 -7 71 -17 l29 42 l-121 0 l0 7 l119 0 l15 18 l38 -22 q0 0 1 -1 q4 -1 4 -4 q0 -6 -16 -8 q-26 -20 -59 -37 q1 0 4 -1 q-1 1 1 -1 q22 -10 22 -24 q-2 -18 -18 -21 Z" /><glyph glyph-name="" unicode="&#x4f53;" d="M225 26 q-43 43 -56 114 l-3 0 l0 -71 q0 -13 0 -36 l11 0 l13 17 l24 -17 q2 -1 2 -3 q0 -3 -8 -4 l-42 0 q0 -6 0 -19 q1 -14 1 -22 q0 -7 -6 -8 q-15 -2 -25 -1 q1 28 1 50 l-43 0 l0 7 l44 0 q0 18 0 29 l0 38 q-24 -42 -75 -79 l0 1 l0 -35 q1 -8 -7 -9 q-10 -3 -21 -2 q0 25 1 61 q0 18 0 25 l0 42 q-14 -16 -29 -30 l-3 3 q28 49 42 96 q1 2 2 7 q3 12 5 28 l38 -10 q3 0 4 -3 q1 -6 -13 -7 q-9 -25 -22 -47 l9 -2 q6 -1 5 -4 q1 -4 -11 -8 l0 -101 q50 64 64 114 l-51 0 l0 6 l62 0 l0 7 q0 37 -1 52 l35 -3 q4 0 4 -3 q0 -4 -10 -9 l0 -44 l35 0 l15 21 l28 -20 q3 -2 2 -3 q0 -3 -8 -4 l-62 0 q25 -56 76 -85 l-1 -4 q-14 -4 -26 -25 Z" /><glyph glyph-name="" unicode="&#x4f60;" d="M39 -24 q0 5 0 14 q2 63 2 79 l0 38 q-15 -20 -33 -35 l-3 2 q29 55 43 104 q0 2 1 6 q4 17 5 23 l37 -10 q4 -1 4 -3 q1 -6 -13 -10 q-9 -25 -22 -48 l15 -2 q4 0 4 -3 q-1 -5 -11 -9 l0 -136 q0 -6 -7 -8 q-7 -2 -22 -2 ZM136 -26 q1 24 -32 28 l1 3 l33 -2 q13 0 13 12 l0 74 q0 3 0 12 q-1 21 -1 36 l34 -3 q4 0 5 -3 q1 -5 -11 -8 l0 -63 q0 -4 0 -17 q1 -25 1 -41 q3 -25 -43 -28 ZM202 113 l-4 2 l10 36 l-79 0 q-18 -34 -46 -60 l-4 3 q25 48 31 81 q3 14 5 30 q0 1 0 2 l38 -7 q6 0 5 -4 q0 -5 -13 -8 q-3 -9 -10 -25 q-2 -4 -3 -6 l72 0 l12 16 l29 -18 q4 -3 4 -6 q0 -5 -13 -6 q-18 -19 -34 -30 ZM80 5 l-5 2 q16 34 25 64 q4 14 6 30 l32 -9 q6 -1 5 -4 q0 -6 -12 -7 q-18 -45 -51 -76 ZM230 11 q-10 0 -12 11 q-9 44 -30 77 l3 2 q54 -41 55 -70 q-1 -19 -16 -20 Z" /><glyph glyph-name="" unicode="&#x4fa0;" d="M216 -22 q-46 30 -54 94 l-1 0 q-12 -62 -90 -97 l-3 4 q53 40 64 93 l-61 0 l0 6 l63 0 q4 24 4 63 l0 14 l-60 0 l0 6 l60 0 l0 7 q0 28 -1 37 l35 -3 q5 0 5 -3 q1 -4 -11 -9 l0 -29 l33 0 l14 20 l27 -19 q0 -1 1 -2 q1 -1 1 -2 q0 -3 -8 -3 l-68 0 l0 -14 q0 -39 -4 -63 l43 0 l15 21 l26 -20 q3 -1 2 -3 q0 -3 -8 -4 l-71 0 q25 -48 81 -66 l-3 -5 q-15 -1 -31 -23 ZM6 73 l-2 3 q25 44 42 97 q4 11 8 32 q0 2 0 3 l37 -10 q3 0 4 -3 q1 -6 -12 -7 q-10 -26 -24 -50 l10 -1 q4 0 4 -3 q1 -5 -8 -8 l0 -140 q0 -7 -7 -8 q-10 -3 -22 -2 q1 40 1 86 l0 44 q-15 -18 -31 -33 ZM178 82 l-4 2 q15 37 17 61 l32 -10 q4 -3 4 -4 q0 -6 -11 -7 q-16 -24 -38 -42 ZM109 87 q-10 0 -11 11 q-2 24 -11 43 l3 2 q34 -18 35 -38 q-1 -17 -16 -18 Z" /><glyph glyph-name="" unicode="&#x5143;" d="M12 111 l0 7 l184 0 l18 22 l30 -22 q3 0 2 -3 q-1 -3 -8 -4 l-68 0 l0 -90 q-1 -12 11 -11 l23 0 q12 0 15 12 l13 43 l3 0 l2 -40 q1 -9 5 -13 q6 -6 6 -12 q1 -17 -32 -17 l-48 0 q-29 -2 -27 25 l0 103 l-35 0 q-1 -64 -21 -90 q-19 -28 -77 -47 l-1 3 q41 27 54 53 q14 27 14 81 l-63 0 ZM39 178 l0 7 l135 0 l16 21 l28 -21 q2 0 2 -3 q0 -3 -8 -4 l-173 0 Z" /><glyph glyph-name="" unicode="&#x5148;" d="M31 102 l-3 2 q23 49 26 93 l37 -8 q4 0 4 -4 q0 -5 -12 -8 q-4 -12 -10 -22 l39 0 l0 1 q0 25 -1 50 l38 -3 q4 0 4 -4 q1 -4 -11 -9 l0 -35 l35 0 l15 21 l29 -21 q1 -1 1 -3 q0 -3 -7 -4 l-73 0 l0 -54 l56 0 l16 22 l29 -21 q1 -1 1 -3 q0 -3 -7 -4 l-68 0 l0 -66 q0 -13 11 -13 l22 0 q10 -1 16 16 l10 34 l3 -1 l2 -29 q1 -14 7 -18 q6 -5 6 -11 q-3 -16 -34 -17 l-43 0 q-29 0 -29 27 l0 78 l-30 0 q-1 -91 -101 -114 l-2 3 q71 36 72 111 l-66 0 l0 6 l99 0 l0 54 l-43 0 q-13 -24 -38 -46 Z" /><glyph glyph-name="" unicode="&#x514d;" d="M13 108 l-3 2 q46 53 57 99 l37 -8 q5 -1 5 -4 q1 -5 -14 -7 q-1 -2 -4 -6 q-2 -4 -4 -6 l46 0 l13 15 l31 -18 q3 -3 3 -6 q-1 -6 -14 -6 q-8 -7 -26 -20 q-7 -5 -11 -8 l52 0 l9 17 l29 -12 q4 -2 4 -5 q0 -6 -9 -11 l0 -18 q0 -21 1 -39 q0 -6 -6 -7 q-9 -3 -24 -3 l0 15 l-53 0 q-15 -76 -123 -98 l-2 3 q84 35 97 95 l-37 0 l0 -6 q0 -7 -6 -8 q-7 -2 -23 -2 q1 15 1 36 l0 34 q-12 -9 -26 -18 ZM155 -20 q-26 -1 -25 24 l0 26 q0 18 0 33 l34 -3 q3 0 4 -3 q0 -4 -10 -9 l0 -35 q-1 -10 9 -9 l36 0 q11 0 14 11 l15 42 l4 0 l0 -39 q0 -9 6 -13 q6 -2 6 -7 q-1 -18 -36 -18 l-57 0 ZM185 129 l-46 0 q-1 -28 -6 -51 l52 0 l0 51 ZM105 78 q6 23 5 51 l-43 0 l0 -51 l38 0 ZM136 171 l-53 0 q-13 -17 -29 -32 l15 -4 l48 0 l19 36 Z" /><glyph glyph-name="" unicode="&#x5178;" d="M8 38 l0 6 l29 0 l0 77 q0 4 0 17 q-1 22 -1 34 l34 -11 l18 0 q0 15 -1 44 l33 -3 q5 0 5 -3 q1 -4 -11 -9 l0 -29 l24 0 q0 23 -1 44 l33 -3 q6 -1 5 -4 q0 -3 -10 -9 l0 -28 l19 0 l10 17 l28 -13 q6 -2 5 -5 q0 -5 -10 -10 l0 -104 l11 16 l23 -17 q1 -1 1 -3 q0 -3 -8 -4 l-236 0 ZM219 -23 q-7 0 -14 6 q-26 23 -66 42 l2 4 q69 -7 86 -22 q8 -7 7 -12 q-1 -17 -15 -18 ZM11 -26 l-3 4 q63 35 79 56 l27 -18 q6 -2 5 -5 q0 -5 -9 -5 q-3 0 -6 0 q-32 -17 -93 -32 ZM165 98 l0 -54 l24 0 l0 54 l-24 0 ZM114 98 l0 -54 l24 0 l0 54 l-24 0 ZM64 98 l0 -54 l24 0 l0 54 l-24 0 ZM189 155 l-24 0 l0 -51 l24 0 l0 51 ZM114 155 l0 -51 l24 0 l0 51 l-24 0 ZM64 155 l0 -51 l24 0 l0 51 l-24 0 Z" /><glyph glyph-name="" unicode="&#x519b;" d="M9 27 l0 7 l109 0 l0 8 l0 29 l-43 0 l-10 -10 q-15 9 -24 19 q-3 4 1 7 q7 2 12 11 l17 33 l-45 0 l0 6 l48 0 l6 11 q5 9 9 25 q1 2 1 3 l36 -10 q4 -1 4 -3 q1 -6 -13 -8 l-10 -18 l66 0 l15 20 l32 -19 q1 -1 1 -3 q0 -3 -7 -4 l-111 0 l-30 -54 l45 0 l0 7 q0 20 -2 37 l36 -3 q4 0 4 -3 q0 -4 -10 -9 l0 -29 l30 0 l15 21 l28 -20 q2 -1 2 -4 q-1 -3 -7 -3 l-68 0 l0 -27 q0 -1 0 -2 q-1 -5 0 -8 l55 0 l17 21 l29 -20 q2 -1 2 -4 q0 -3 -8 -4 l-95 0 q0 -36 1 -43 q0 -6 -6 -7 q-15 -2 -25 -1 q0 3 0 17 q1 23 1 34 l-108 0 ZM26 142 q-13 1 -14 15 q0 9 7 14 q18 12 24 32 l3 0 q2 -6 2 -14 l153 0 l13 16 l32 -21 q4 -2 3 -5 q0 -6 -15 -6 q-18 -14 -36 -21 l-2 2 l9 29 l-156 0 q0 -9 0 -16 q-4 -24 -23 -25 Z" /><glyph glyph-name="" unicode="&#x5206;" d="M14 -27 l-3 4 q70 44 72 119 l-30 0 l0 7 l109 0 l11 18 l3 -2 q-22 24 -35 63 q-3 6 -7 15 q-3 4 -4 7 l25 -3 q3 -1 3 -3 q1 -3 -11 -7 q29 -55 104 -73 l-1 -5 q-18 -7 -27 -29 q-3 2 -8 5 q-7 4 -10 6 q-1 -1 -5 -3 q-2 -1 -3 -2 q0 -38 -3 -70 q0 -38 -53 -43 q-1 24 -38 30 l1 5 l38 -2 q22 -4 22 18 q3 28 3 68 l-53 0 q-3 -91 -100 -123 ZM10 74 l-3 4 q37 38 59 81 q9 17 15 37 l36 -14 q4 -2 4 -5 q-1 -7 -15 -7 q-32 -62 -96 -96 Z" /><glyph glyph-name="" unicode="&#x5217;" d="M12 176 l0 6 l91 0 l14 20 l27 -19 q2 -1 2 -3 q-1 -3 -8 -4 l-54 0 q-5 -22 -14 -42 l31 0 l11 15 l28 -16 q3 -2 3 -5 q1 -3 -11 -8 q-21 -107 -120 -145 l-3 4 q81 59 95 148 l-37 0 q-6 -14 -14 -26 q32 -15 31 -30 q-1 -17 -15 -19 q-8 0 -9 11 q-3 19 -10 33 q-16 -23 -38 -44 l-4 3 q34 57 46 121 l-42 0 ZM193 -25 q-2 25 -35 29 l1 4 l37 -1 q12 -1 12 11 l0 140 q0 23 -2 46 l35 -3 q6 0 5 -3 q-1 -6 -11 -9 l0 -88 q0 -9 0 -43 q1 -41 1 -55 q2 -23 -43 -28 ZM152 31 q2 62 2 83 l0 28 q0 12 -2 40 l34 -3 q4 0 4 -3 q0 -4 -10 -9 l0 -125 q0 -7 -6 -8 q-10 -3 -22 -3 Z" /><glyph glyph-name="" unicode="&#x5305;" d="M120 47 l0 15 l-42 0 l0 -41 q0 -13 13 -13 l111 0 q13 -1 16 11 l14 41 l4 0 l2 -38 q0 -9 4 -13 q6 -4 6 -9 q-3 -17 -38 -18 l-130 0 q-32 -1 -31 29 l0 85 l0 17 q-23 -26 -39 -38 l-4 3 q34 49 51 96 q6 18 8 33 l40 -9 q6 -2 5 -5 q-2 -6 -14 -7 q-1 -1 -2 -5 q-2 -4 -8 -14 l95 0 l11 18 l31 -14 q4 -2 4 -5 q0 -5 -10 -11 q0 -32 -2 -81 q2 -44 -46 -47 q-1 22 -22 26 q0 -3 -4 -4 q-14 -2 -23 -2 ZM148 111 l0 -52 l19 -1 q18 -3 18 20 q1 29 1 83 l-104 0 q-9 -17 -21 -32 l24 -6 l30 0 l9 16 l30 -13 q4 -2 4 -5 q0 -3 -10 -10 ZM120 116 l-42 0 l0 -48 l42 0 l0 48 Z" /><glyph glyph-name="" unicode="&#x5386;" d="M175 -24 q1 23 -41 30 l1 3 l39 -2 q20 -3 21 16 q3 34 3 83 l-51 0 q-2 -100 -95 -131 l-2 3 q67 46 67 128 l-43 0 l0 7 l44 0 q0 3 0 8 q1 19 -2 43 l39 -3 q5 0 5 -3 q0 -5 -12 -10 l0 -13 q0 -12 0 -22 l45 0 l10 17 l31 -14 q4 -1 4 -4 q0 -5 -10 -11 q0 -46 -3 -87 q0 -37 -50 -38 ZM10 -25 l-3 2 q30 52 28 141 l0 26 q0 6 -1 26 q-1 14 -1 23 l41 -9 l126 0 l16 22 l31 -21 q2 -1 2 -3 q0 -3 -8 -4 l-177 0 l0 -59 q4 -96 -54 -144 Z" /><glyph glyph-name="" unicode="&#x53e3;" d="M193 -6 l0 25 l-128 0 l0 -18 q1 -4 -7 -6 q-11 -3 -26 -3 q2 72 2 82 l0 49 q0 4 0 26 q-1 27 -1 32 l40 -13 l113 0 l11 19 l34 -14 q4 -2 4 -5 q-1 -7 -11 -12 l0 -52 q0 -56 2 -100 q0 -6 -7 -7 q-1 0 -5 -1 q-14 -2 -21 -2 ZM193 162 l-128 0 l0 -136 l128 0 l0 136 Z" /><glyph glyph-name="" unicode="&#x53e4;" d="M10 143 l0 6 l99 0 l0 2 q0 4 0 17 q-1 25 -1 38 l39 -3 q4 -1 4 -4 q1 -4 -11 -9 l0 -41 l56 0 l17 23 l31 -22 q3 -1 2 -3 q0 -3 -8 -4 l-98 0 l0 -62 l34 0 l10 17 l30 -13 q4 -2 4 -5 q1 -5 -9 -11 l0 -30 q0 -31 1 -53 q1 -7 -5 -8 q-14 -2 -27 -2 l0 23 l-108 0 l0 -13 q0 -7 -6 -8 q-7 -2 -25 -2 q1 28 1 53 l0 18 q0 23 -1 43 l37 -9 l33 0 l0 62 l-99 0 ZM178 74 l-108 0 l0 -71 l108 0 l0 71 Z" /><glyph glyph-name="" unicode="&#x53f2;" d="M9 -24 l-2 5 q61 23 82 49 q-15 18 -27 45 l3 2 q20 -24 33 -33 q10 18 13 44 l-52 0 l0 -10 q0 -5 -4 -6 q-10 -3 -25 -3 q1 21 1 44 l0 18 q0 8 -1 37 l35 -10 l48 0 q-1 10 -1 45 l37 -3 q4 0 5 -3 q0 -6 -12 -10 l0 -29 l48 0 l10 16 l29 -12 q5 -1 5 -5 q0 -4 -11 -10 l0 -20 q0 -6 1 -31 q1 -11 1 -17 q1 -7 -5 -8 q-12 -2 -24 -2 l0 19 l-56 0 q-4 -36 -19 -58 q32 -19 128 -18 l0 -5 q-14 -1 -19 -28 q-90 6 -125 34 q-25 -20 -96 -37 ZM196 152 l-54 0 l0 -24 q0 -18 -1 -34 l55 0 l0 58 ZM113 122 l0 25 l0 5 l-54 0 l0 -58 l53 0 q0 4 0 12 q1 11 1 16 Z" /><glyph glyph-name="" unicode="&#x540c;" d="M184 -25 q4 26 -36 30 l1 4 l38 -2 q13 0 13 11 l0 161 l-145 0 l0 -193 q0 -6 -6 -8 q-12 -3 -25 -3 q0 9 1 25 q1 55 1 77 l0 61 q0 2 0 14 q-1 31 -1 42 l34 -9 l135 0 l10 17 l30 -13 q4 -1 4 -4 q0 -6 -9 -11 l0 -72 q0 -16 2 -94 q3 -29 -47 -33 ZM147 25 l0 10 l-40 0 l0 -7 q0 -7 -7 -9 q-11 -2 -22 -2 q1 27 1 41 l0 27 q0 12 0 32 l30 -8 l34 0 l9 16 l28 -12 q6 -2 5 -5 q-1 -5 -10 -10 l0 -22 q0 -7 0 -40 q1 -7 -5 -8 q-9 -3 -23 -3 ZM147 103 l-40 0 l0 -61 l40 0 l0 61 ZM67 140 l0 7 l80 0 l16 20 l28 -20 q2 -1 2 -3 q-1 -3 -8 -4 l-118 0 Z" /><glyph glyph-name="" unicode="&#x559c;" d="M8 50 l0 6 l76 0 q-3 2 -3 5 q0 1 -1 2 q-4 12 -9 18 q-2 0 -2 0 q-14 -2 -23 -2 q0 5 1 18 q0 9 0 12 l0 2 q0 4 -1 13 q0 8 0 10 l35 -8 l89 0 l9 15 l29 -11 q4 -2 4 -5 q0 -3 -9 -9 l0 -5 q0 -2 0 -8 q1 -9 1 -12 q0 -6 -6 -7 q-9 -3 -24 -3 l0 8 l-99 0 q0 -3 0 -4 q32 -4 32 -17 q0 -8 -7 -12 l42 0 q6 16 8 31 l29 -7 q4 -1 4 -4 q0 -4 -10 -6 q-1 -1 -4 -3 q-9 -8 -15 -11 l46 0 l17 22 l29 -21 q3 -1 2 -3 q0 -3 -8 -4 l-232 0 ZM179 -25 l0 17 l-107 0 l0 -7 q0 -7 -6 -8 q-16 -2 -24 -2 q0 5 1 19 q0 10 0 14 l0 6 q0 4 0 13 q-1 9 -1 12 l37 -8 l96 0 l9 15 l30 -11 q4 -2 4 -5 q0 -4 -9 -10 l0 -5 q0 -7 0 -29 q1 -7 -5 -8 q-4 -1 -16 -2 q-6 -1 -9 -1 ZM15 173 l0 5 l95 0 q-1 7 -1 28 l37 -3 q4 -1 4 -4 q-1 -5 -11 -9 l0 -12 l54 0 l15 21 l29 -20 q2 -1 2 -3 q0 -3 -8 -3 l-92 0 l0 -23 l46 0 l14 19 l27 -18 q2 -1 2 -3 q0 -4 -8 -4 l-192 0 l0 6 l82 0 l0 19 l0 4 l-95 0 ZM179 26 l-107 0 l0 -29 l107 0 l0 29 ZM174 121 l-99 0 l0 -27 l99 0 l0 27 Z" /><glyph glyph-name="" unicode="&#x5668;" d="M137 -24 q0 24 0 35 l0 12 q0 13 0 28 l30 -8 l26 0 l5 9 q-37 11 -58 43 l-17 0 q-21 -33 -75 -48 l13 -4 l25 0 l9 15 l26 -11 q4 -2 4 -5 q0 -5 -10 -10 l0 -17 q0 -3 0 -11 q1 -10 1 -17 q1 -7 -5 -8 q-9 -2 -21 -3 l0 19 l-33 0 l0 -9 q0 -7 -7 -8 q-9 -3 -19 -2 q1 23 1 34 l0 11 q0 2 0 9 q-1 8 -1 12 q-10 -3 -22 -4 l-2 4 q59 25 80 53 l-77 0 l0 7 l82 0 l1 2 q7 11 10 23 q-2 0 -7 0 q-5 -1 -8 -1 l0 9 l-31 0 l0 -5 q1 -7 -6 -8 q-11 -2 -20 -2 q0 7 1 20 q0 11 0 16 l0 13 q0 7 -1 24 l33 -9 l20 0 l8 15 l26 -11 q4 -1 4 -4 q0 -4 -9 -11 l0 -8 q0 -12 1 -29 q0 -4 -3 -7 l29 -7 q4 -1 4 -4 q0 -5 -13 -7 q-2 -4 -5 -9 l49 0 q-3 1 -3 4 q-4 12 -10 19 l1 2 q31 -1 31 -14 q0 -7 -8 -11 l16 0 l15 20 l27 -19 q2 -1 2 -3 q-1 -5 -8 -5 l-90 0 q45 -22 102 -20 l0 -4 q-11 -6 -15 -26 q-3 0 -6 1 q2 -1 2 -4 q0 -5 -9 -10 l0 -16 q0 -11 1 -28 q1 -7 -5 -8 q-9 -3 -21 -3 l0 18 l-34 0 l0 -8 q0 -7 -7 -8 q-10 -3 -19 -3 ZM197 126 l0 9 l-34 0 q0 -7 -6 -8 q-11 -2 -20 -2 q0 20 0 36 l0 8 q0 6 0 23 l31 -8 l25 0 l8 15 l26 -11 q4 -2 4 -5 q0 -6 -9 -11 l0 -8 q0 -15 1 -28 q1 -7 -5 -8 q-12 -2 -21 -2 ZM197 37 l-34 0 l0 -37 l34 0 l0 37 ZM90 37 l-33 0 l0 -37 l33 0 l0 37 ZM197 177 l-34 0 l0 -36 l34 0 l0 36 ZM88 178 l-31 0 l0 -37 l31 0 l0 37 Z" /><glyph glyph-name="" unicode="&#x573a;" d="M183 -25 q1 24 -26 27 l1 4 l25 -1 q22 -6 22 27 q3 24 5 70 q0 3 0 4 l-11 0 q-7 -91 -107 -133 l-3 4 q75 55 82 129 l-15 0 q-13 -67 -88 -106 l-4 3 q55 51 65 103 l-1 0 l-17 -12 q-11 10 -19 19 q-3 4 2 5 q9 0 16 6 l63 59 l-80 0 l0 6 l80 0 l13 15 l29 -19 q4 -2 4 -4 q1 -6 -16 -7 l-69 -61 l71 0 l9 16 l29 -12 q0 0 1 -1 q4 -1 4 -4 q1 -5 -11 -11 q-1 -39 -4 -78 q0 -45 -50 -48 ZM9 126 l0 7 l31 0 l0 22 q0 12 -1 29 q0 14 0 23 l35 -3 q4 0 4 -4 q0 -5 -11 -9 l0 -58 l3 0 l11 17 l21 -17 q2 -1 2 -3 q0 -3 -9 -4 l-28 0 l0 -70 q7 1 23 5 q8 2 12 3 l1 -4 q-39 -27 -77 -43 q-1 -12 -6 -12 q-3 0 -4 5 l-10 36 q5 0 16 2 q12 1 18 2 l0 76 l-31 0 Z" /><glyph glyph-name="" unicode="&#x5927;" d="M212 -22 q-62 47 -72 150 l-3 0 q-5 -116 -129 -154 l-3 4 q94 56 99 150 l-92 0 l0 7 l92 0 q1 12 1 26 q0 37 -1 45 l42 -3 q5 0 5 -3 q0 -6 -12 -10 l0 -24 q0 -6 -1 -16 q0 -10 0 -15 l58 0 l18 24 l31 -23 q3 -2 2 -4 q-1 -3 -8 -4 l-92 0 q30 -86 104 -118 l-2 -6 q-19 0 -37 -26 Z" /><glyph glyph-name="" unicode="&#x5947;" d="M117 6 l0 11 l-51 0 l0 -12 q0 -5 -5 -5 q-12 -3 -23 -3 q0 5 1 21 q0 13 0 18 l0 18 q0 5 0 14 q-1 9 -1 13 l37 -8 l38 0 l8 16 l28 -12 q4 -2 4 -5 q0 -3 -10 -10 l0 -15 q0 -4 0 -13 q1 -12 1 -19 q0 -4 -4 -6 q-9 -3 -23 -3 ZM22 166 l0 6 l77 0 q0 1 0 1 q4 13 4 33 l37 -5 q0 0 1 0 q3 -1 3 -3 q0 -5 -11 -9 q0 -3 -1 -8 q-1 -6 -2 -9 l61 0 l15 19 l27 -18 q0 0 1 -1 q1 0 1 -2 q0 -3 -8 -4 l-100 0 q-1 -5 -4 -11 q78 -4 80 -26 q-1 -16 -12 -17 q-6 0 -12 6 q-25 20 -58 33 q-19 -33 -96 -41 l-1 4 q61 19 73 52 l-75 0 ZM8 99 l0 6 l193 0 l17 21 l29 -20 q3 -1 2 -3 q0 -3 -8 -4 l-33 0 l0 -25 q0 -46 1 -68 q0 -27 -41 -31 q-1 21 -33 25 l1 3 l33 -1 q10 0 10 9 l0 88 l-171 0 ZM117 67 l-51 0 l0 -44 l51 0 l0 44 Z" /><glyph glyph-name="" unicode="&#x5b8c;" d="M164 -19 q-29 -2 -27 25 l0 74 l-31 0 q4 -86 -97 -107 l-2 4 q73 30 69 103 l-60 0 l0 7 l177 0 l16 21 l29 -21 q3 -1 2 -3 q0 -3 -8 -4 l-67 0 l0 -63 q0 -11 11 -11 l28 0 q10 0 13 10 l13 38 l4 -1 l0 -35 q0 -8 5 -11 q6 -6 6 -9 q0 -17 -33 -17 l-48 0 ZM27 123 q-14 1 -15 16 q0 10 7 15 q17 12 23 33 l2 -1 q3 -9 4 -16 l67 0 q-4 3 -5 8 q-3 16 -10 27 l2 2 q42 -4 41 -22 q0 -9 -12 -15 l68 0 l14 17 l29 -22 q6 -3 5 -6 q0 -6 -15 -6 q-16 -9 -35 -17 l-4 2 l10 26 l-154 0 q1 -7 1 -14 q-3 -25 -23 -27 ZM52 122 l0 7 l110 0 l15 20 l28 -20 q2 -1 2 -3 q0 -3 -8 -4 l-147 0 Z" /><glyph glyph-name="" unicode="&#x5b9e;" d="M215 -24 q-5 -1 -14 8 q-29 29 -60 45 q-30 -42 -125 -56 l-2 5 q89 30 108 73 l-110 0 l0 7 l113 0 q3 6 5 15 q6 22 6 50 q0 8 -1 23 q-1 4 -1 6 l39 -3 q4 0 4 -3 q1 -4 -11 -9 q0 -42 -7 -68 q-1 -6 -3 -11 l43 0 l18 23 l30 -23 q2 -1 2 -3 q-1 -4 -9 -4 l-87 0 q-3 -9 -8 -15 q86 -14 86 -40 q-2 -18 -16 -20 ZM27 124 q-14 1 -15 16 q0 9 8 14 q14 9 18 32 l2 0 q4 -9 7 -16 l72 0 q-3 2 -4 7 q-3 17 -11 28 l1 2 q44 -2 43 -23 q0 -9 -10 -14 l61 0 l15 16 l30 -21 q4 -2 4 -6 q0 -5 -15 -5 q-11 -8 -39 -22 l-4 3 l14 28 l-155 0 q1 -7 1 -16 q-2 -21 -23 -23 ZM76 66 q-8 0 -11 8 q-6 16 -21 34 l2 2 q48 -8 47 -28 q-1 -14 -17 -16 ZM103 105 q-8 0 -12 9 q-5 15 -21 31 l2 2 q47 -5 47 -25 q-2 -15 -16 -17 Z" /><glyph glyph-name="" unicode="&#x5c0f;" d="M100 -24 q3 24 -46 32 l1 4 l48 -2 q12 0 12 12 l0 117 q0 36 -1 67 l39 -3 q6 -1 5 -4 q1 -4 -11 -9 l0 -89 q0 -66 1 -95 q2 -27 -48 -30 ZM225 22 q-11 0 -14 13 q-13 60 -44 112 l3 3 q77 -55 77 -103 q-1 -23 -22 -25 ZM8 12 l-3 2 q29 50 43 101 q5 18 6 33 l40 -10 q4 -2 4 -4 q1 -6 -14 -8 q-18 -68 -76 -114 Z" /><glyph glyph-name="" unicode="&#x5e02;" d="M12 155 l0 7 l186 0 l18 23 l30 -22 q3 -1 2 -4 q0 -3 -8 -4 l-99 0 l0 -38 l49 0 l9 17 l31 -13 q4 -2 4 -5 q0 -4 -10 -11 l0 -27 q0 -3 0 -17 q1 -25 1 -34 q4 -24 -41 -27 q1 22 -31 28 l1 3 l30 -1 q12 0 11 11 l0 70 l-54 0 l0 -57 q0 -3 0 -19 q1 -36 1 -51 q1 -6 -5 -8 q-7 -1 -26 -1 q1 38 1 76 l0 60 l-52 0 l0 -104 q0 -6 -5 -7 q-4 0 -13 0 q-9 -1 -12 -1 q1 18 1 44 l0 44 q0 15 0 41 l37 -11 l44 0 l0 38 l-100 0 ZM125 163 q-11 1 -14 10 q-3 16 -14 32 l1 2 q49 -2 47 -26 q-2 -17 -20 -18 Z" /><glyph glyph-name="" unicode="&#x5e7b;" d="M28 -10 q-2 0 -4 4 l-11 34 q16 1 23 10 q13 19 36 64 q-24 -8 -44 -13 q0 -10 -6 -10 q-3 0 -4 4 l-11 31 q15 1 19 11 q10 25 19 58 q0 2 1 7 q3 8 3 16 l38 -9 q4 0 4 -4 q-1 -6 -14 -8 q-9 -24 -39 -71 l40 1 q8 18 12 35 l36 -14 q4 -1 4 -4 q-1 -6 -14 -8 q-35 -58 -69 -95 l52 6 q-2 6 -8 19 q-2 6 -3 9 l3 3 q44 -29 44 -51 q-1 -18 -18 -20 q-10 -1 -12 10 q-1 11 -4 21 q-32 -17 -67 -26 q-1 -10 -6 -10 ZM179 -24 q0 24 -35 31 l0 5 l37 -3 q17 -2 18 15 q2 42 5 148 l-92 0 l0 6 l87 0 l10 17 l31 -14 q4 -1 4 -4 q1 -6 -10 -12 q0 -50 -5 -143 q1 -44 -50 -46 Z" /><glyph glyph-name="" unicode="&#x5f02;" d="M70 91 q-30 -1 -29 25 l0 49 q0 25 -1 33 l36 -9 l88 0 l10 16 l30 -12 q4 -2 4 -4 q0 -5 -10 -11 l0 -5 q0 -3 0 -10 q1 -12 1 -19 q0 -6 -5 -7 q-1 0 -2 0 q-13 -2 -23 -2 l0 10 l-99 0 l0 -18 q-1 -12 11 -11 l105 0 q20 -1 24 14 l8 25 l4 0 l2 -28 q1 -8 6 -11 q4 -4 4 -9 q-2 -15 -39 -16 l-125 0 ZM9 40 l0 7 l58 0 q0 5 0 10 q0 14 -1 24 l37 -3 q5 0 5 -3 q-1 -6 -11 -9 l0 -7 q-1 -7 -1 -12 l59 0 q0 1 0 8 q-1 17 -1 26 l36 -2 q4 -1 4 -4 q0 -4 -10 -9 l0 -19 l18 0 l16 22 l29 -21 q2 -1 2 -3 q-1 -5 -9 -5 l-56 0 l0 -11 q0 -3 0 -14 q1 -20 1 -29 q0 -9 -6 -8 q-9 -3 -26 -3 q0 6 1 16 q1 16 1 33 l0 16 l-60 0 q-3 -50 -79 -65 l-2 3 q49 26 52 62 l-57 0 ZM169 183 l-99 0 l0 -32 l99 0 l0 32 Z" /><glyph glyph-name="" unicode="&#x5f71;" d="M25 124 q1 21 1 39 l0 5 q0 17 0 32 l32 -7 l53 0 l8 15 l27 -11 q0 0 1 -1 q4 -1 4 -4 q0 -4 -10 -10 l0 -7 q0 -8 1 -30 q1 -6 1 -9 q0 -5 -4 -6 l23 -17 q2 -1 2 -3 q0 -3 -8 -4 l-146 0 l0 6 l64 0 q-1 1 -1 2 q-1 2 -1 3 q-1 11 -5 19 l-14 0 l0 -3 q1 -6 -5 -7 q-14 -2 -23 -2 ZM64 -24 q-1 18 -23 23 l1 2 l20 -1 q10 0 10 9 l0 40 l-16 0 l0 -1 q1 -6 -5 -6 q-5 -1 -15 -2 q-6 -1 -8 -1 q1 10 1 31 l0 8 q0 10 0 19 l33 -8 l46 0 l7 14 l27 -11 q4 0 4 -3 q1 -5 -8 -10 l0 -3 q0 -12 0 -27 q0 -4 -4 -6 q-1 0 -2 0 q-9 -2 -21 -2 l0 8 l-14 0 l0 -11 q0 -4 0 -18 q1 -15 1 -20 q2 -21 -34 -24 ZM124 -26 l-2 3 q52 37 74 66 q12 15 20 30 l33 -17 q3 -2 3 -5 q1 -5 -14 -5 q-40 -48 -114 -72 ZM146 58 l-2 3 q48 45 66 82 l33 -17 q4 -2 4 -4 q-1 -6 -14 -5 q-33 -33 -87 -59 ZM151 128 l-3 4 q36 37 54 73 l33 -16 q4 -2 4 -5 q1 -5 -14 -5 q-33 -31 -74 -51 ZM111 84 l-55 0 l0 -29 l55 0 l0 29 ZM53 162 l0 -20 l62 0 l0 20 l-62 0 ZM115 187 l-62 0 l0 -20 l62 0 l0 20 ZM7 -16 l-2 3 q20 25 29 49 l27 -10 q4 -2 4 -4 q0 -5 -11 -5 q-15 -17 -47 -33 ZM132 -2 q-7 0 -10 7 q-8 18 -17 28 l1 2 q41 -7 40 -24 q-1 -12 -14 -13 ZM115 128 l0 8 l-34 0 q18 -4 18 -14 q0 -6 -7 -10 l32 0 l14 18 q-10 -2 -23 -2 Z" /><glyph glyph-name="" unicode="&#x5fc5;" d="M102 -14 q-29 0 -29 27 l0 4 q-24 -13 -64 -26 l-2 4 q36 20 66 46 l0 57 q0 34 -1 56 l37 -3 q5 0 5 -4 q0 -5 -12 -9 l0 -74 q46 46 71 96 q8 15 12 31 l37 -16 q6 -2 5 -5 q0 -6 -17 -6 q-42 -82 -108 -128 l0 -10 q-1 -15 14 -14 l42 0 q13 -1 16 14 l15 43 l4 -1 l2 -41 q0 -10 4 -12 q8 -4 7 -10 q-4 -18 -36 -19 l-68 0 ZM25 38 q-14 1 -15 19 q0 9 7 16 q19 18 26 56 l3 0 q7 -29 6 -49 q-2 -40 -27 -42 ZM228 31 q-9 0 -12 14 q-6 40 -22 67 l3 2 q50 -31 51 -58 q-1 -24 -20 -25 ZM132 143 q-10 0 -12 8 q-9 28 -31 51 l2 3 q60 -18 59 -42 q-2 -17 -18 -20 Z" /><glyph glyph-name="" unicode="&#x60ac;" d="M8 108 l0 6 l53 0 l0 49 q0 27 -1 36 l32 -9 l74 0 l9 16 l28 -12 q4 -2 4 -5 q0 -4 -10 -9 l0 -66 l10 0 l13 19 l27 -19 q1 -1 1 -2 q1 -3 -8 -4 l-113 0 q-15 -12 -46 -27 l87 2 q-9 7 -22 16 l1 3 q67 -6 66 -28 q-1 -17 -14 -18 q-6 -1 -13 9 q-1 2 -3 4 q-3 3 -4 4 q-56 -11 -113 -17 q-2 -8 -6 -9 q-3 0 -4 4 l-9 30 q12 -1 20 7 q12 10 20 20 l-79 0 ZM99 -17 q-30 -2 -28 21 l0 47 l30 -3 q4 0 5 -3 q1 -5 -9 -9 l0 -22 q-1 -12 11 -10 l48 0 q12 0 17 11 l11 26 l3 -1 l2 -22 q0 -6 5 -10 q6 -4 5 -8 q-2 -16 -34 -17 l-66 0 ZM88 159 l0 -19 l82 0 l0 19 l-82 0 ZM170 184 l-82 0 l0 -19 l82 0 l0 19 ZM88 134 l0 -20 l82 0 l0 20 l-82 0 ZM229 -6 q-8 0 -12 8 q-7 27 -20 42 l2 3 q51 -14 48 -35 q-1 -17 -18 -18 ZM26 -13 q-13 1 -14 14 q0 11 10 17 q15 8 20 27 l4 0 q5 -13 5 -30 q-2 -27 -25 -28 ZM140 14 q-8 0 -11 7 q-7 21 -20 33 l2 3 q47 -6 45 -25 q-2 -16 -16 -18 Z" /><glyph glyph-name="" unicode="&#x60c5;" d="M100 -25 q0 17 1 42 q0 11 0 14 l0 30 q0 16 -1 41 l35 -8 l60 0 l9 14 l29 -11 q4 -1 4 -4 q0 -5 -10 -11 l0 -26 q0 -32 1 -56 q1 -21 -40 -25 q3 19 -35 25 l1 2 l34 -1 q12 0 11 10 l0 18 l-71 0 l0 -43 q1 -7 -5 -8 q-11 -3 -23 -3 ZM40 -25 q0 12 1 32 q1 46 1 61 l0 90 q0 5 0 23 q-1 19 -1 25 l32 -2 q5 0 5 -3 q0 -5 -10 -9 l0 -22 l1 1 q31 -12 31 -28 q-1 -13 -13 -15 q-8 0 -9 8 q-1 16 -10 33 l0 -183 q0 -6 -7 -8 q-10 -3 -21 -3 ZM93 175 l0 7 l55 0 q0 10 -1 25 l35 -3 q5 0 5 -4 q1 -3 -11 -9 l0 -9 l28 0 l14 18 l25 -18 q2 -1 2 -3 q0 -3 -8 -4 l-61 0 l0 -23 l19 0 l13 17 l25 -17 q2 -1 2 -3 q0 -3 -8 -4 l-51 0 l0 -25 l30 0 l15 19 l26 -18 q3 -3 2 -4 q0 -3 -8 -3 l-154 0 l0 6 l61 0 l0 25 l-43 0 l0 7 l43 0 l0 15 l0 8 l-55 0 ZM199 88 l-71 0 l0 -23 l71 0 l0 23 ZM128 59 l0 -23 l71 0 l0 23 l-71 0 ZM16 90 q-10 1 -11 14 q0 7 6 16 q9 14 13 41 l2 1 q8 -23 8 -39 q-1 -31 -18 -33 Z" /><glyph glyph-name="" unicode="&#x620f;" d="M230 -24 q-26 1 -51 27 q-7 9 -13 19 q-28 -22 -86 -42 l-3 5 q48 27 78 58 q-13 31 -18 80 l-37 -5 l-1 6 l38 5 q-1 6 -1 18 q-1 12 -1 18 q0 23 -3 41 l37 -4 q5 0 5 -3 q0 -6 -10 -9 q0 -40 1 -57 l44 7 l11 20 l27 -14 q2 -1 2 -3 q-1 -5 -7 -5 l-76 -11 q3 -37 10 -59 q7 9 13 21 q10 17 12 30 l33 -14 q4 -1 4 -4 q-1 -7 -13 -7 q-18 -31 -37 -52 q9 -16 25 -27 q3 -3 5 -3 q3 0 4 5 l14 39 l3 -1 l1 -39 q1 -10 4 -16 q5 -4 4 -11 q-1 -12 -18 -13 ZM95 16 q-8 0 -11 10 q-3 6 -9 19 q-5 10 -7 15 q-21 -37 -58 -68 l-4 4 q34 49 48 89 q-16 26 -40 57 l3 3 q25 -19 43 -36 q7 24 10 54 l-61 0 l0 6 l58 0 l10 17 l28 -15 q4 -1 4 -4 q1 -4 -11 -10 q-7 -38 -17 -68 q2 -2 5 -7 q8 -7 17 -22 q10 -13 9 -26 q-2 -16 -17 -18 ZM208 155 q-6 0 -10 9 q-6 14 -21 27 l2 2 q44 -4 44 -22 q-1 -15 -15 -16 Z" /><glyph glyph-name="" unicode="&#x627e;" d="M232 -24 q-26 0 -53 29 q-2 4 -6 10 q-5 7 -7 10 q-28 -22 -78 -35 l-3 5 q42 21 72 50 q-13 30 -17 81 l-46 -6 l-1 7 l47 6 q-1 5 -1 17 q-1 10 -1 16 q0 31 -2 41 l35 -3 q5 -1 5 -4 q0 -5 -10 -9 q0 -31 2 -55 l41 6 l11 20 l27 -14 q3 -1 2 -3 q-1 -5 -7 -5 l-74 -10 q3 -37 10 -61 q7 10 13 20 q11 15 15 31 l32 -14 q4 -1 4 -4 q-1 -6 -13 -6 q-18 -30 -40 -51 q11 -17 24 -29 q5 -3 6 -3 q3 0 5 4 l12 35 l3 -1 l1 -33 q-1 -12 4 -18 q4 -4 4 -11 q-1 -12 -16 -13 ZM35 -24 q1 21 -26 25 l0 4 l27 -2 q11 0 11 10 l0 53 q-10 -4 -21 -9 q0 -9 -6 -9 q-3 0 -4 3 l-10 33 q18 2 41 6 l0 53 l-38 0 l0 6 l38 0 l0 4 q0 6 -1 30 q0 19 0 23 l35 -2 q4 0 4 -3 q1 -4 -11 -9 l0 -43 l10 0 l13 17 l22 -17 q1 -1 1 -3 q1 -3 -8 -3 l-38 0 l0 -46 q11 2 34 8 q6 2 9 3 l2 -4 q-3 -2 -9 -5 q-23 -13 -36 -20 l0 -75 q1 -26 -39 -28 ZM207 155 q-7 -1 -11 9 q-6 14 -18 27 l1 2 q43 -3 43 -21 q-1 -16 -15 -17 Z" /><glyph glyph-name="" unicode="&#x6280;" d="M8 143 l0 6 l34 0 l0 3 q0 30 -1 53 l35 -2 q4 -1 4 -3 q0 -6 -10 -10 l0 -41 l4 0 l12 16 l9 -8 l0 1 l51 0 q0 4 0 16 q-1 20 -1 32 l35 -3 q5 -1 5 -4 q1 -4 -11 -9 l0 -32 l27 0 l15 20 l28 -20 q3 -1 2 -3 q0 -3 -8 -4 l-64 0 l0 -45 l14 0 l12 16 l31 -15 q4 -2 4 -4 q0 -7 -13 -10 q-16 -40 -39 -65 q27 -14 67 -19 l-1 -4 q-16 -4 -24 -28 q-38 14 -63 32 q-30 -23 -89 -35 l-2 4 q52 24 75 47 q-20 24 -32 74 l-13 0 l0 7 l45 0 l0 45 l-43 0 l3 -2 q2 -1 2 -3 q-2 -3 -8 -3 l-30 0 l0 -42 q15 5 34 12 l2 -3 q-7 -5 -19 -13 q-12 -8 -17 -11 l0 -82 q1 -26 -39 -28 q2 22 -24 27 l0 3 l25 -1 q11 -1 10 9 l0 55 q-1 -1 -4 -2 q-4 -2 -12 -8 q-1 -11 -6 -11 q-3 0 -4 4 l-10 33 q15 2 36 8 l0 50 l-34 0 ZM120 99 q18 -37 42 -56 q18 24 29 56 l-71 0 Z" /><glyph glyph-name="" unicode="&#x62a2;" d="M170 30 q1 19 -24 24 l0 4 l23 -1 q13 -2 14 12 q2 25 2 39 l-48 0 l0 -92 q0 -11 11 -11 l45 0 q18 -1 23 17 l12 34 l4 -1 l0 -34 q0 -10 5 -14 q5 -5 5 -8 q-1 -17 -35 -18 l-70 0 q-28 -1 -27 25 l0 99 q-6 -5 -19 -14 q-6 -4 -9 -6 l-3 3 q12 14 21 27 q-7 -7 -22 -19 q-5 -4 -8 -6 l0 -90 q2 -23 -39 -26 q0 25 -22 27 l0 4 l24 -2 q10 -1 9 10 l0 58 q-2 -1 -7 -4 q-4 -3 -7 -5 q0 -13 -6 -13 q-3 0 -5 4 l-12 33 q17 3 37 11 l0 45 l-34 0 l0 6 l34 0 l0 18 q0 28 -1 40 l36 -3 q6 0 5 -3 q0 -5 -12 -9 l0 -43 l3 0 l13 18 l21 -17 q2 -1 2 -3 q-1 -3 -8 -4 l-31 0 l0 -35 q14 6 29 12 l2 -4 q21 30 32 58 q6 17 9 34 l37 -9 q5 -1 4 -4 q0 -5 -13 -8 q35 -47 83 -62 l-2 -4 q-10 0 -22 -25 q-2 2 -7 6 q-4 3 -7 5 q0 0 -1 -1 q-1 0 -2 -1 q0 -15 -2 -45 q0 -27 -40 -29 ZM180 114 l9 15 l9 -5 q-19 23 -32 54 q-17 -35 -41 -60 l16 -4 l39 0 Z" /><glyph glyph-name="" unicode="&#x6392;" d="M94 93 l0 8 l27 0 l0 41 l0 7 l-25 0 q0 -3 -7 -4 l-24 0 l0 -46 q6 1 18 5 q6 2 9 3 l2 -3 q-2 -2 -6 -4 q-10 -8 -23 -16 l0 -82 q2 -25 -34 -26 q1 22 -23 24 l1 3 l20 0 q11 -1 10 9 l0 57 q-2 -1 -7 -3 q-5 -3 -8 -4 q0 -11 -5 -11 q-3 -1 -4 4 l-10 31 q7 1 20 3 q4 1 7 2 q1 0 4 1 q2 0 3 0 l0 53 l-31 0 l0 6 l31 0 l0 3 q0 33 -1 52 l33 -3 q5 -1 5 -3 q1 -5 -11 -10 l0 -39 l2 0 l10 15 l12 -10 l32 0 q0 32 0 50 l34 -2 q4 0 4 -3 q1 -5 -11 -10 l0 -203 q1 -8 -5 -9 q-14 -2 -23 -2 q0 9 0 27 q1 22 1 32 l-39 0 l0 7 l39 0 q0 17 0 25 l0 25 l-27 0 ZM169 -24 l0 165 q0 40 0 64 l35 -3 q4 0 4 -3 q1 -5 -11 -10 l0 -33 l11 0 l13 17 l24 -17 q2 -1 2 -3 q0 -3 -7 -4 l-43 0 l0 -44 l12 0 l12 17 l21 -16 q3 -1 2 -3 q0 -3 -7 -4 l-40 0 l0 -10 q0 -14 0 -41 l17 0 l13 18 l23 -17 q2 -1 2 -3 q0 -3 -7 -4 l-48 0 q1 -22 1 -55 q0 -8 -7 -9 q-9 -2 -22 -2 Z" /><glyph glyph-name="" unicode="&#x63a8;" d="M83 77 l-4 3 q27 46 37 90 q5 16 6 32 l37 -8 q4 -2 4 -4 q0 -5 -12 -8 q-7 -16 -13 -29 l70 0 l13 18 l25 -18 q3 -1 2 -2 q0 -3 -8 -4 l-46 0 l0 -46 l12 0 l13 17 l24 -16 q2 -3 2 -3 q-1 -5 -8 -5 l-43 0 l0 -46 l12 0 l13 18 l24 -17 q2 -1 2 -3 q0 -3 -8 -4 l-43 0 l0 -44 l16 0 l14 17 l24 -16 q3 -3 2 -3 q1 -4 -8 -4 l-107 0 l0 -5 q0 -9 -6 -9 q-6 -2 -23 -2 q2 36 2 82 l0 46 q-12 -13 -25 -27 ZM36 -24 q1 19 -27 24 l0 4 l27 -1 q9 0 9 9 l0 62 q-7 -4 -16 -9 q-2 -12 -7 -11 q-3 0 -4 4 l-10 29 q16 2 37 8 l0 50 l-34 0 l0 7 l34 0 q0 32 -1 54 l35 -2 q4 -1 4 -4 q1 -5 -11 -10 l0 -38 l5 0 l10 15 l18 -15 q2 -1 2 -3 q0 -3 -8 -4 l-27 0 l0 -41 q3 2 11 5 q6 2 9 3 l2 -3 q-12 -10 -22 -17 l0 -90 q1 -24 -36 -26 ZM135 42 l0 -44 l32 0 l0 44 l-32 0 ZM135 94 l0 -46 l32 0 l0 46 l-32 0 ZM135 147 l0 -46 l32 0 l0 46 l-32 0 ZM185 159 q-9 0 -10 11 q-3 18 -12 33 l2 2 q37 -11 37 -28 q-1 -17 -17 -18 Z" /><glyph glyph-name="" unicode="&#x65b0;" d="M107 -24 l-5 3 q25 28 32 55 q7 25 7 88 l0 21 q0 14 -1 38 l32 -8 q28 14 44 30 l27 -21 q3 -1 3 -4 q0 -3 -6 -4 q-3 0 -8 2 q-22 -7 -64 -12 l0 -40 q0 -11 -1 -15 l42 0 l15 19 l25 -18 q1 -1 1 -4 q0 -3 -8 -3 l-21 0 l0 -54 q0 -28 0 -64 q1 -7 -5 -7 q-11 -3 -23 -2 q1 15 1 66 l0 61 l-27 0 q3 -97 -60 -127 ZM7 104 l0 6 l66 0 q10 29 10 51 l33 -9 q3 -1 3 -4 q0 -6 -11 -6 q-1 -1 -2 -3 q-13 -20 -23 -29 l16 0 l14 18 l23 -17 q2 -1 2 -3 q0 -4 -8 -4 l-49 0 l0 -30 l14 0 l13 16 l22 -16 q2 -1 2 -3 q0 -3 -9 -4 l-42 0 l0 -13 l1 2 q42 -11 42 -30 q-1 -16 -13 -17 q-7 0 -10 8 q-5 18 -20 36 l0 -5 q0 -31 1 -45 q2 -22 -33 -26 q1 19 -23 23 l1 2 l19 0 q10 -2 9 10 l0 31 q-2 -1 -8 -3 q-15 -29 -39 -49 l-3 2 q11 19 17 41 q3 12 4 24 l28 -8 q1 0 1 0 l0 17 l-44 0 l0 7 l44 0 l0 30 l-48 0 ZM12 163 l0 6 l50 0 q-5 2 -8 9 q-2 14 -11 25 l1 2 q36 -3 37 -20 q0 -13 -13 -16 l27 0 l12 16 l22 -15 q0 -1 1 -2 q1 -1 1 -2 q0 -3 -9 -3 l-110 0 ZM43 114 q-8 0 -9 11 q-4 18 -11 30 l3 2 q34 -12 33 -27 q-1 -15 -16 -16 Z" /><glyph glyph-name="" unicode="&#x65f6;" d="M23 -6 q0 10 1 40 q0 28 0 37 l0 58 q0 19 -1 58 l31 -9 l25 0 l9 15 l27 -11 q4 -3 4 -4 q1 -3 -10 -11 l0 -24 l74 0 q0 6 0 21 q-1 26 -1 42 l34 -3 q6 -1 5 -3 q0 -5 -10 -9 l0 -48 l2 0 l13 18 l22 -18 q3 -1 2 -2 q0 -5 -8 -5 l-31 0 l0 -35 q0 -6 0 -31 q1 -44 1 -64 q1 -28 -43 -30 q2 22 -34 27 l1 3 l34 -1 q14 -1 13 12 l0 119 l-74 0 l0 -46 q0 -8 0 -37 q1 -32 1 -41 q1 -5 -5 -6 q-3 -1 -14 -2 q-5 -1 -8 -1 l0 21 l-34 0 l0 -22 q0 -5 -7 -6 q-9 -2 -19 -2 ZM49 98 l0 -68 l34 0 l0 68 l-34 0 ZM83 172 l-34 0 l0 -67 l34 0 l0 67 ZM148 58 q-9 0 -11 11 q-2 24 -15 44 l2 2 q42 -19 41 -38 q-1 -18 -17 -19 Z" /><glyph glyph-name="" unicode="&#x6625;" d="M162 -24 l0 16 l-74 0 l0 -7 q1 -6 -5 -7 q-3 0 -8 -1 q-12 -1 -16 -2 q0 9 1 32 q0 13 0 16 l0 22 l0 18 q-21 -16 -51 -33 l-4 4 q41 36 62 69 l-56 0 l0 7 l60 0 q8 12 13 25 l-52 0 l0 7 l55 0 q3 6 7 18 q1 5 2 7 l-73 0 l0 6 l75 0 q0 1 0 2 q4 16 7 34 l38 -8 q5 0 5 -4 q0 -6 -13 -7 q-1 -3 -2 -8 q-2 -6 -3 -9 l54 0 l16 20 l29 -19 q2 -1 2 -3 q0 -4 -8 -4 l-94 0 q-6 -13 -10 -25 l53 0 l15 18 l27 -17 q3 -3 2 -4 q0 -3 -8 -4 l-92 0 q-6 -13 -13 -25 l93 0 l16 20 l30 -19 q3 -2 2 -4 q0 -3 -8 -4 l-73 0 q33 -29 85 -36 l-1 -5 q-15 -1 -25 -24 q-19 9 -32 20 l0 -29 q0 -3 0 -17 q1 -19 1 -27 q1 -6 -4 -7 q-14 -2 -25 -2 ZM162 68 l-74 0 l0 -33 l74 0 l0 33 ZM88 29 l0 -30 l74 0 l0 30 l-74 0 ZM95 74 l63 0 l7 13 q-4 7 -9 16 l-57 0 q-10 -13 -22 -25 l18 -4 Z" /><glyph glyph-name="" unicode="&#x6700;" d="M125 -21 l-1 1 q-1 -3 -4 -3 q-8 -3 -22 -3 l0 36 q-19 -6 -59 -15 q-7 -2 -10 -3 q-1 -9 -5 -9 q-3 0 -4 3 l-9 28 q4 1 13 1 q9 1 13 1 l0 86 l-27 0 l0 6 l192 0 l14 20 l27 -19 q3 -1 2 -3 q0 -3 -8 -4 l-112 0 l0 -62 l0 -14 q3 1 9 2 q5 1 8 1 l1 -4 q-3 -1 -9 -3 q-6 -3 -9 -4 q0 -7 1 -20 q0 -9 0 -13 q26 20 37 34 q-16 21 -23 57 l-11 0 l0 6 l59 0 l11 13 l29 -15 q3 -2 3 -5 q-1 -5 -12 -8 q-12 -25 -25 -43 q19 -11 54 -17 l-1 -4 q-13 -3 -22 -26 q-32 14 -50 28 q-20 -14 -50 -26 ZM45 118 q1 17 1 41 l0 8 q0 22 -1 31 l32 -8 l95 0 l8 16 l29 -13 q3 -1 3 -4 q1 -4 -9 -10 l0 -8 q0 -2 0 -7 q1 -19 1 -35 q1 -7 -5 -8 q-12 -2 -24 -2 l0 9 l-102 0 l0 -1 q0 -6 -6 -7 q-7 -2 -22 -2 ZM73 157 l0 -23 l102 0 l0 23 l-102 0 ZM175 185 l-102 0 l0 -22 l102 0 l0 22 ZM146 76 q12 -24 29 -40 q10 18 17 40 l-46 0 ZM63 18 q6 1 17 2 q12 2 18 3 l0 22 l-35 0 l0 -27 ZM63 73 l0 -22 l35 0 l0 22 l-35 0 ZM63 102 l0 -22 l35 0 l0 22 l-35 0 Z" /><glyph glyph-name="" unicode="&#x671f;" d="M204 -24 q1 22 -31 25 l1 4 l26 -1 q12 0 12 11 l0 47 l-39 0 q-3 -57 -58 -89 l-3 3 q32 38 34 72 q-2 -1 -5 -1 l-133 0 l0 8 l25 0 l0 99 l0 6 l-22 0 l0 7 l22 0 q0 6 -1 18 q0 12 0 17 l33 -3 q3 0 3 -3 q-1 -6 -11 -9 l0 -20 l37 0 q0 5 0 17 q-1 12 -1 18 l33 -3 q3 0 3 -3 q0 -4 -10 -9 l0 -20 l1 0 l9 12 l17 -13 q2 -2 2 -2 q-1 -3 -6 -4 l-23 0 l0 -105 l10 14 l18 -15 q2 13 2 45 l0 48 q0 23 0 46 l31 -9 l27 0 l10 16 l26 -13 q4 -1 4 -4 q0 -5 -10 -11 l0 -62 q1 -61 2 -105 q1 -24 -35 -29 ZM174 108 q0 -22 -1 -38 l39 0 l0 53 l-38 0 l0 -15 ZM212 178 l-38 0 l0 -49 l38 0 l0 49 ZM9 -24 l-2 2 q18 23 27 41 q3 7 7 18 q1 2 1 3 l32 -12 q3 -1 3 -4 q0 -6 -13 -6 q-23 -25 -55 -42 ZM57 86 l0 -31 l37 0 l0 31 l-37 0 ZM108 -8 q-8 0 -10 8 q-7 23 -19 37 l2 2 q18 -5 32 -13 q12 -9 12 -19 q-1 -13 -17 -15 ZM94 129 l0 28 l0 3 l-37 0 l0 -31 l37 0 ZM57 123 l0 -31 l37 0 l0 31 l-37 0 Z" /><glyph glyph-name="" unicode="&#x672c;" d="M217 20 q-55 48 -71 124 l-4 0 l0 -53 q0 -34 0 -58 l13 0 l14 19 l26 -19 q2 -1 2 -3 q-1 -4 -9 -4 l-46 0 q0 -17 1 -40 q0 -7 -8 -8 q-6 -2 -25 -2 q1 21 1 50 l-48 0 l0 7 l48 0 q0 7 1 20 q0 12 0 18 l0 38 q-34 -58 -103 -101 l-4 5 q63 63 90 131 l-81 0 l0 7 l98 0 q0 13 -1 32 q0 16 0 24 l38 -3 q4 -1 4 -4 q0 -4 -11 -9 l0 -40 l52 0 l17 23 l31 -23 q2 -1 2 -3 q-1 -3 -8 -4 l-84 0 q34 -67 98 -94 l-2 -6 q-16 0 -31 -24 Z" /><glyph glyph-name="" unicode="&#x699c;" d="M8 142 l0 6 l32 0 l0 12 q0 6 0 23 q-1 18 -1 23 l34 -2 q4 -1 4 -4 q-1 -5 -11 -9 l0 -43 l12 17 l21 -16 q1 -1 1 -3 q0 -3 -7 -4 l-27 0 l0 -27 q15 -7 22 -15 q-2 3 -2 8 q0 6 8 13 q11 8 14 22 l3 0 q1 -3 2 -8 q2 -3 2 -5 l57 0 q7 22 10 41 l29 -9 q3 -1 3 -4 q0 -5 -10 -6 q-10 -12 -21 -22 l25 0 l10 14 l28 -18 q4 -1 3 -4 q0 -4 -12 -4 q-16 -11 -33 -19 l-3 2 l10 23 l-95 0 q0 -4 0 -9 q-1 -20 -19 -21 q-3 0 -6 2 q4 -6 4 -10 q-1 -14 -14 -15 q-6 0 -7 7 q-3 18 -8 29 l0 -121 q1 -8 -6 -9 q-12 -2 -22 -2 q2 42 2 90 l0 20 q-13 -26 -33 -53 l-3 2 q21 51 31 108 l-27 0 ZM99 79 l0 6 l57 0 q-3 2 -3 7 q-2 13 -11 26 l2 2 q36 -5 35 -21 q0 -10 -8 -14 l35 0 l14 18 l26 -17 q2 -1 2 -3 q0 -4 -8 -4 l-86 0 q-1 -14 -3 -26 l38 0 l10 16 l29 -12 q4 -1 4 -5 q0 -5 -10 -11 q0 -5 -1 -15 q-1 -15 -2 -22 q-2 -29 -45 -29 q2 20 -29 25 l1 5 l30 -3 q13 -2 15 12 q0 3 1 9 q2 16 2 24 l-44 0 q-8 -51 -76 -76 l-2 4 q54 38 53 104 l-26 0 ZM95 172 l0 7 l56 0 q-2 2 -2 6 q-3 15 -9 23 l2 2 q39 -3 37 -19 q0 -7 -8 -12 l34 0 l14 19 l25 -19 q3 -1 2 -3 q0 -3 -8 -4 l-143 0 ZM141 131 q-7 0 -9 8 q-2 16 -10 29 l1 2 q33 -8 34 -23 q-1 -15 -16 -16 Z" /><glyph glyph-name="" unicode="&#x6b21;" d="M219 -22 q-52 41 -61 108 q-7 -88 -114 -113 l-2 4 q85 44 85 114 q3 18 0 38 l40 -2 q4 0 5 -3 q1 -5 -12 -9 q0 -4 0 -8 q22 -69 90 -98 l-2 -6 q-18 -2 -29 -25 ZM78 75 l-5 3 q25 46 35 96 q2 7 4 22 q1 7 2 10 l43 -9 q4 -1 4 -4 q0 -5 -14 -8 q-2 -4 -5 -12 q-2 -4 -9 -19 l64 0 l12 16 l33 -20 q4 -3 4 -5 q0 -5 -15 -6 q-15 -19 -45 -43 l-4 2 l19 49 l-71 0 q-20 -41 -52 -72 ZM38 -5 q-15 1 -16 14 q0 4 2 12 q1 4 1 6 q3 9 3 18 q2 15 -19 23 l1 5 q8 -1 12 -1 q9 0 13 8 l50 95 l5 -2 l-32 -89 q-7 -19 -6 -32 q0 -12 3 -23 q3 -10 3 -19 q-1 -14 -20 -15 ZM43 137 q-9 0 -12 10 q-5 25 -19 42 l3 2 q46 -13 46 -34 q-1 -18 -18 -20 Z" /><glyph glyph-name="" unicode="&#x6b22;" d="M9 -1 l-4 2 q33 46 48 84 q-12 22 -40 56 l3 3 q27 -18 45 -35 q9 27 11 59 l-62 0 l0 7 l58 0 l10 16 l31 -14 q4 -2 4 -4 q1 -5 -11 -10 q-9 -46 -20 -73 q27 -29 27 -50 q-1 -18 -16 -20 q-7 0 -12 10 q-6 16 -14 31 q-17 -29 -58 -62 ZM219 -23 q-40 40 -46 112 q-5 -88 -109 -115 l-2 4 q88 45 85 133 q0 3 0 10 q-1 8 -1 12 l36 -3 q5 0 5 -3 q1 -5 -12 -9 l0 -5 q18 -80 77 -104 l-2 -5 q-18 -3 -31 -27 ZM106 86 l-4 2 q21 46 28 86 q3 18 4 35 l39 -7 q4 -1 4 -4 q1 -5 -14 -8 q-5 -15 -11 -29 l54 0 l12 15 l31 -17 q3 -2 3 -5 q-2 -5 -13 -7 q-19 -21 -38 -37 l-3 2 l12 43 l-60 0 q-18 -39 -44 -69 Z" /><glyph glyph-name="" unicode="&#x6b66;" d="M216 156 q-8 0 -11 10 q-2 11 -14 28 l2 2 q39 -7 39 -24 q0 -10 -10 -15 l24 -17 q2 -1 2 -3 q-1 -3 -8 -4 l-61 0 q3 -83 38 -117 q3 -3 5 -3 q3 0 4 4 l14 40 l3 -1 l-1 -41 q0 -9 3 -14 q4 -5 4 -12 q-1 -11 -18 -12 q-24 1 -42 23 q-33 41 -37 133 l-142 0 l0 7 l141 0 q0 5 0 12 q0 6 -1 18 q-1 23 -2 35 l36 -3 q4 -1 4 -4 q1 -4 -10 -8 q0 -12 0 -25 q0 -14 1 -25 l25 0 l13 16 l-1 0 ZM24 -21 q-3 0 -4 5 l-11 33 q3 0 10 0 q8 1 12 1 l0 41 q0 16 0 44 l32 -2 q5 -1 5 -4 q0 -4 -10 -9 l0 -68 q11 0 23 2 l0 57 q0 17 -1 45 l34 -3 q4 0 5 -3 q1 -4 -11 -9 l0 -32 l11 0 l12 16 l20 -15 q2 -1 2 -3 q0 -4 -8 -4 l-37 0 l0 -46 q24 3 7 1 q17 2 45 6 l1 -5 q-61 -23 -129 -37 q-2 -11 -8 -11 ZM29 170 l0 6 l68 0 l15 19 l27 -18 q2 -1 2 -4 q0 -3 -8 -3 l-104 0 Z" /><glyph glyph-name="" unicode="&#x6c14;" d="M233 -24 q-24 1 -44 26 q-22 32 -22 74 l0 18 l-126 0 l0 7 l122 0 l8 16 l31 -13 q6 -1 5 -4 q1 -5 -11 -11 l0 -12 q-1 -35 21 -57 q3 -4 5 -3 q2 0 4 5 l15 41 l3 -1 l-2 -45 q-1 -10 2 -16 q5 -4 5 -11 q-1 -13 -16 -14 ZM10 92 l-3 3 q27 38 42 74 q8 19 11 38 l39 -9 q4 -1 4 -4 q0 -5 -13 -8 q-1 -2 -3 -6 q-3 -4 -4 -6 l99 0 l16 21 l29 -21 q3 -1 3 -3 q0 -3 -8 -4 l-143 0 q-25 -44 -69 -75 ZM70 131 l0 6 l94 0 l15 20 l29 -19 q2 -1 2 -3 q0 -3 -8 -4 l-132 0 Z" /><glyph glyph-name="" unicode="&#x6d6a;" d="M221 -22 q-32 19 -47 44 q-32 -21 -65 -36 q-1 -12 -6 -11 q-3 0 -4 4 l-13 27 q11 3 11 16 l0 110 q0 7 -1 25 q0 17 0 23 l35 -9 l21 0 q-5 2 -5 8 q-2 13 -10 26 l2 2 q38 -4 38 -21 q0 -12 -11 -15 l27 0 l8 15 l30 -12 q4 -1 4 -4 q0 -5 -10 -11 l0 -30 q0 -24 1 -42 q0 -6 -6 -7 q-2 -1 -4 -1 l23 -16 q4 -1 4 -4 q0 -3 -7 -4 q-3 0 -6 1 q-13 -9 -37 -19 q22 -17 58 -29 l-2 -5 q-17 -3 -28 -25 ZM41 -23 q-14 1 -15 17 q0 3 2 8 q1 5 1 7 q3 10 3 19 q1 16 -22 23 l1 4 q3 0 8 -1 q4 0 5 0 q12 1 15 9 l47 96 l4 -2 l-29 -89 q-6 -15 -5 -31 q0 -15 3 -25 q3 -11 3 -17 q-1 -17 -21 -18 ZM197 164 l-71 0 l0 -33 l71 0 l0 33 ZM126 125 l0 -33 l71 0 l0 33 l-71 0 ZM171 26 q-14 24 -20 59 l-25 0 l0 -70 l45 11 ZM59 154 q-9 -1 -11 8 q-9 24 -22 37 l1 2 q47 -9 48 -28 q-1 -17 -16 -19 ZM39 97 q-9 -1 -11 9 q-9 22 -20 37 l2 2 q45 -10 45 -29 q-1 -16 -16 -19 ZM197 77 l0 8 l-40 0 q12 -24 29 -41 q18 20 25 34 q-8 -1 -14 -1 Z" /><glyph glyph-name="" unicode="&#x6e38;" d="M63 152 l0 6 l61 0 l11 16 l21 -16 q1 -1 1 -3 q4 12 7 23 q2 7 3 23 q1 3 1 4 l37 -8 q4 -2 4 -4 q0 -5 -13 -8 q-6 -12 -16 -27 l28 0 l15 19 l24 -18 q2 -1 2 -3 q0 -3 -9 -4 l-64 0 q-14 -18 -29 -34 l11 -5 q3 -3 3 -5 q0 -4 -10 -9 q0 -5 0 -17 q-1 -13 -1 -20 l32 0 q0 13 0 34 l18 -2 l8 27 l-49 0 l0 6 l47 0 l11 14 l26 -17 q4 -1 4 -4 q1 -4 -11 -6 q-14 -11 -29 -20 l7 -1 q4 0 4 -3 q1 -4 -9 -8 l0 -20 l7 0 l12 16 l21 -16 q2 -1 2 -3 q0 -3 -8 -3 l-34 0 l0 -12 q0 -16 0 -42 q2 -24 -36 -26 q2 21 -23 24 l1 3 l22 -1 q9 0 9 8 l0 42 l0 4 l-33 0 q-1 -24 -5 -48 q-2 -31 -40 -31 q3 21 -22 27 l1 3 l24 -3 q10 -1 12 11 q5 40 7 90 l-18 0 q-5 -88 -53 -131 l-4 2 q33 58 32 161 l0 15 l-20 0 ZM35 -22 q-13 1 -14 17 q0 7 3 16 q3 10 3 20 q2 12 -20 19 l1 5 q7 -1 10 -1 q11 -1 15 9 l35 82 l3 -1 l-20 -76 q-4 -16 -4 -34 q0 -9 3 -21 q3 -9 3 -17 q-1 -17 -18 -18 ZM143 120 q7 15 14 33 q-2 -1 -7 -1 l-41 0 l0 -12 q0 -15 0 -29 l13 0 l9 15 l12 -6 ZM46 153 q-8 0 -11 9 q-5 22 -16 36 l2 2 q40 -10 40 -29 q-1 -17 -15 -18 ZM30 93 q-6 0 -9 10 q-5 21 -15 36 l2 2 q39 -12 38 -30 q-2 -16 -16 -18 ZM102 162 q-9 0 -11 10 q-2 17 -11 32 l1 2 q36 -10 37 -27 q-1 -16 -16 -17 Z" /><glyph glyph-name="" unicode="&#x6f2b;" d="M229 -25 q-42 7 -74 20 q-38 -15 -93 -21 l-2 4 q46 14 74 27 q-20 15 -33 42 l-20 0 l0 6 l103 0 l11 13 l31 -16 q6 -2 5 -5 q1 -5 -14 -8 q-12 -15 -28 -25 q27 -4 62 -4 l-1 -5 q-16 -4 -21 -28 ZM77 61 q0 17 0 32 l0 9 q0 14 0 22 l30 -7 l99 0 l9 15 l26 -11 q4 -2 4 -5 q0 -5 -9 -10 l0 -9 q0 -19 1 -25 q0 -6 -6 -7 q-15 -3 -21 -3 l0 8 l-107 0 l0 -1 q1 -6 -5 -6 q-7 -2 -21 -2 ZM188 127 l0 7 l-63 0 l0 -2 q0 -4 -4 -5 q-10 -2 -22 -2 q0 17 0 39 l0 8 q0 15 0 27 l32 -8 l52 0 l9 15 l27 -12 q4 -1 4 -4 q0 -4 -9 -10 l0 -10 q0 -26 1 -35 q1 -4 -5 -6 q-9 -2 -22 -2 ZM37 -20 q-15 1 -15 17 q0 8 3 17 q2 10 2 17 q2 17 -19 23 l2 5 q2 0 6 -1 q2 0 3 0 q10 -1 16 12 l46 104 l3 -2 l-28 -101 q-6 -21 -6 -31 q0 -11 4 -25 q3 -10 3 -18 q-1 -16 -20 -17 ZM125 159 l0 -19 l63 0 l0 19 l-63 0 ZM188 185 l-63 0 l0 -20 l63 0 l0 20 ZM187 47 l-77 0 q19 -18 47 -28 q18 13 30 28 ZM49 156 q-10 0 -11 9 q-6 19 -18 34 l2 1 q43 -6 44 -25 q-2 -16 -17 -19 ZM33 103 q-10 0 -11 8 q-4 16 -14 33 l1 2 q42 -6 41 -24 q-2 -17 -17 -19 ZM210 111 l-20 0 l0 -35 l20 0 l0 35 ZM103 111 l0 -35 l20 0 l0 35 l-20 0 ZM146 111 l0 -35 l21 0 l0 35 l-21 0 Z" /><glyph glyph-name="" unicode="&#x7075;" d="M12 -26 l-3 5 q94 37 96 102 q1 12 1 23 l37 -2 q5 -1 5 -3 q0 -6 -12 -9 q11 -26 27 -44 q25 29 33 48 l30 -17 q2 -2 2 -5 q0 -3 -8 -5 q-3 0 -6 1 q-19 -15 -46 -27 q29 -25 80 -33 l-1 -6 q-19 -2 -30 -27 q-69 30 -84 95 q-10 -77 -121 -96 ZM33 109 l0 6 l149 0 l0 31 l-138 0 l0 7 l138 0 l0 31 l-146 0 l0 6 l141 0 l10 16 l31 -12 q4 -2 4 -5 q1 -4 -11 -11 l0 -21 q0 -6 0 -22 q1 -20 1 -29 q0 -5 -4 -5 q-9 -3 -26 -3 l0 11 l-149 0 ZM46 28 q-14 1 -15 16 q0 9 8 13 q19 11 27 35 l2 0 q4 -15 4 -31 q-3 -31 -26 -33 Z" /><glyph glyph-name="" unicode="&#x70b9;" d="M46 40 q0 8 1 29 q0 12 0 15 l0 19 q0 15 0 33 l39 -10 l24 0 l0 31 q0 38 -1 49 l37 -4 q4 0 4 -3 q-1 -5 -10 -9 l0 -22 l51 0 l16 21 l26 -21 q3 -1 2 -3 q0 -3 -8 -4 l-87 0 l0 -35 l35 0 l9 16 l30 -12 q4 -2 4 -5 q0 -4 -10 -11 l0 -14 q0 -31 1 -49 q0 -5 -5 -6 q-11 -3 -25 -3 l0 12 l-103 0 l0 -4 q0 -6 -6 -8 q-12 -2 -24 -2 ZM179 120 l-103 0 l0 -58 l103 0 l0 58 ZM221 -21 q-10 0 -13 9 q-5 25 -21 44 l3 3 q51 -15 50 -37 q-2 -17 -19 -19 ZM27 -24 q-15 1 -16 18 q0 7 11 13 q19 10 29 29 l4 -1 q2 -12 0 -23 q-3 -34 -28 -36 ZM155 -18 q-9 0 -10 13 q-2 20 -11 39 l3 2 q38 -19 37 -37 q-1 -16 -19 -17 ZM98 -21 q-9 0 -10 13 q0 20 -6 41 l2 2 q34 -21 33 -38 q-1 -17 -19 -18 Z" /><glyph glyph-name="" unicode="&#x70ed;" d="M85 35 l-3 3 q38 43 47 72 q-6 7 -22 21 q1 -1 -3 3 l2 3 q15 -6 26 -12 q3 13 4 28 l-24 0 q-1 0 -3 0 l-30 0 l0 -30 q4 0 12 2 q12 1 18 2 l2 -4 q-6 -2 -16 -7 q-11 -5 -16 -7 l0 -45 q3 -27 -39 -31 q0 21 -24 24 l1 5 l25 -1 q10 -2 10 9 l0 29 q-11 -5 -26 -8 q-1 -11 -7 -11 q-1 0 -3 5 l-8 30 q19 0 44 4 l0 34 l-43 0 l0 6 l43 0 l0 8 q0 24 -1 39 l33 -2 q4 0 4 -3 q0 -5 -9 -9 l0 -33 l1 0 l12 17 l22 -16 l22 0 l0 5 l0 8 q0 24 -1 33 l34 -2 q5 0 5 -4 q0 -4 -11 -9 l0 -21 q0 -5 0 -10 l20 0 l9 16 l27 -12 q4 -2 3 -5 q0 -5 -8 -10 l0 -18 q0 -43 8 -55 q2 -3 4 -3 q2 0 3 4 l11 31 l4 -1 l-1 -35 q-1 -9 3 -13 q4 -3 4 -10 q-1 -12 -15 -13 q-17 0 -29 14 q-18 22 -19 73 l0 30 l-24 0 q-1 -24 -7 -42 q25 -17 25 -35 q-1 -16 -14 -17 q-5 -1 -9 7 q-6 13 -13 22 q-16 -28 -60 -53 ZM223 -23 q-12 0 -13 11 q-4 21 -19 43 l3 2 q46 -18 46 -37 q-1 -17 -17 -19 ZM22 -26 q-14 1 -15 16 q0 10 9 13 q21 8 26 26 l3 0 q5 -16 3 -29 q-2 -24 -26 -26 ZM157 -21 q-9 0 -11 12 q-3 24 -14 40 l2 2 q41 -16 41 -36 q-1 -17 -18 -18 ZM100 -21 q-9 0 -10 11 q-1 18 -11 39 l2 2 q34 -16 37 -34 q-1 -17 -18 -18 Z" /><glyph glyph-name="" unicode="&#x7231;" d="M24 85 q-13 1 -14 16 q0 11 8 15 q14 9 19 27 l2 0 q1 -2 3 -7 q1 -5 2 -8 l116 0 q14 31 16 49 l34 -13 q4 -1 4 -4 q0 -5 -13 -5 q-13 -15 -30 -27 l34 0 l14 15 l27 -19 q3 -2 3 -5 q1 -4 -14 -6 q-6 -5 -27 -12 l12 -9 q2 -1 2 -3 q0 -3 -8 -3 l-109 0 q-2 -7 -6 -20 q-1 -3 -2 -4 l68 0 l13 15 l31 -18 q3 -2 3 -4 q0 -6 -13 -7 q-17 -23 -30 -33 q30 -9 73 -10 l-1 -5 q-18 -2 -24 -24 q-47 7 -73 24 q-37 -20 -98 -26 l-1 4 q54 19 80 35 q-15 13 -28 44 l-2 0 q-22 -51 -84 -79 l-3 3 q56 46 67 105 l-36 0 l0 6 l38 0 q3 12 3 27 l36 -7 q6 0 5 -3 q1 -5 -11 -8 q-1 -4 -3 -9 l72 0 l15 19 l7 -5 l7 16 l-163 0 q0 -4 0 -9 q-2 -27 -21 -28 ZM27 175 l0 4 q132 18 171 30 l21 -19 q3 -2 3 -5 q0 -1 -4 -3 q-3 0 -11 3 q-43 -6 -82 -8 q-38 -2 -98 -2 ZM103 57 q17 -18 39 -31 q15 13 26 31 l-65 0 ZM127 133 q-9 0 -9 9 q-3 18 -11 31 l2 3 q37 -11 36 -25 q-1 -16 -18 -18 ZM74 130 q-8 0 -9 8 q0 1 -1 2 q-5 21 -12 29 l2 2 q37 -8 37 -24 q-2 -15 -17 -17 Z" /><glyph glyph-name="" unicode="&#x731c;" d="M188 -25 q3 18 -31 25 l1 2 l29 0 q12 -1 11 9 l0 17 l-65 0 l0 -42 q0 -7 -6 -8 q-8 -2 -23 -2 q1 25 1 53 l0 33 q0 15 -1 41 l35 -8 l55 0 l9 15 l28 -12 q4 -2 4 -5 q0 -5 -9 -10 l0 -29 q0 -30 1 -53 q1 -23 -39 -26 ZM9 114 l-3 4 q24 23 33 37 q-9 18 -25 37 l3 3 q20 -13 32 -27 q3 5 6 9 q9 15 15 29 l30 -14 q4 -2 4 -4 q-1 -6 -13 -4 q-13 -17 -28 -32 q22 -30 21 -95 q4 -83 -50 -82 q0 22 -25 27 l1 4 l21 -1 q28 -8 26 55 q0 10 -1 19 q-18 -23 -48 -42 l-3 3 q32 44 46 80 q-2 9 -5 18 q-16 -12 -37 -24 ZM95 173 l0 6 l53 0 q-1 15 -1 28 l35 -3 q6 0 5 -4 q0 -4 -11 -9 l0 -12 l29 0 l13 19 l25 -18 q2 -1 2 -3 q0 -3 -8 -4 l-61 0 l0 -22 l23 0 l13 17 l24 -17 q2 -1 2 -3 q0 -3 -8 -4 l-54 0 l0 -24 l34 0 l14 18 l24 -17 q3 -1 2 -3 q0 -4 -8 -4 l-153 0 l0 6 l59 0 l0 24 l-46 0 l0 7 l46 0 l0 17 l0 5 l-53 0 ZM198 88 l-65 0 l0 -23 l65 0 l0 23 ZM133 58 l0 -23 l65 0 l0 23 l-65 0 Z" /><glyph glyph-name="" unicode="&#x7384;" d="M9 154 l0 6 l184 0 l19 25 l32 -24 q3 -1 2 -3 q0 -3 -8 -4 l-105 0 q-34 -37 -64 -61 l66 0 q1 1 3 4 q2 2 3 3 q14 18 21 35 l38 -19 q3 -1 3 -4 q0 -6 -16 -6 q-50 -54 -112 -92 l111 5 q-12 22 -27 40 l3 3 q69 -34 70 -62 q-2 -19 -18 -22 q-10 -1 -13 12 q-1 4 -5 10 q-2 4 -3 7 q-90 -15 -143 -22 q-2 -11 -8 -10 q-2 -1 -4 5 l-9 34 q23 -1 32 7 q32 24 64 59 q-43 -9 -70 -13 q-1 -11 -7 -11 q-1 0 -3 5 l-9 32 q13 0 21 9 q20 22 33 52 l-81 0 ZM122 163 q-9 0 -11 10 q-4 20 -14 32 l2 2 q42 -5 43 -27 q-1 -16 -20 -17 Z" /><glyph glyph-name="" unicode="&#x73b0;" d="M193 -18 q-27 -1 -26 22 l0 42 q-22 -46 -91 -72 l-3 4 q86 56 83 140 l0 6 q0 19 0 37 l32 -4 q6 0 5 -3 q-1 -6 -10 -9 l0 -16 q0 -27 -5 -49 l18 -2 q4 0 4 -3 q0 -3 -7 -8 l0 -54 q0 -9 8 -9 l8 0 q10 -1 12 11 l12 37 l4 -1 l0 -25 q-1 -16 6 -20 q5 -3 5 -8 q-1 -15 -28 -16 l-27 0 ZM109 56 q0 36 0 64 l0 34 q0 18 0 44 l32 -9 l59 0 l9 15 l28 -12 q4 -1 4 -4 q1 -3 -10 -10 l0 -37 q0 -42 1 -70 q1 -4 -5 -6 q-8 -3 -23 -3 l0 121 l-68 0 l0 -118 q0 -4 -5 -6 q-3 0 -10 -1 q-10 -1 -12 -2 ZM9 177 l0 6 l58 0 l14 18 l24 -18 q1 0 1 -3 q0 -3 -7 -3 l-33 0 l0 -61 l4 0 l13 16 l19 -16 q2 -2 2 -2 q1 -3 -8 -4 l-30 0 l0 -59 q18 5 36 11 l2 -4 q-39 -29 -76 -47 q0 -11 -5 -11 q-3 0 -4 3 l-12 35 q9 0 26 4 q4 0 7 2 l0 66 l-30 0 l0 6 l30 0 l0 61 l-31 0 Z" /><glyph glyph-name="" unicode="&#x7545;" d="M93 46 l0 7 l-15 0 l0 -68 q1 -7 -5 -8 q-8 -3 -21 -3 q0 12 0 8 q2 53 2 71 l-15 0 l0 -2 q0 -6 -4 -7 q-12 -2 -19 -2 l0 121 l28 -7 l10 0 l0 7 q0 19 -1 43 l32 -3 q4 0 4 -3 q0 -4 -11 -9 l0 -35 l11 0 l8 13 l25 -11 q3 -1 3 -4 q0 -5 -9 -10 l0 -87 q0 -7 -5 -8 q-9 -3 -18 -3 ZM186 -24 q0 21 -26 24 l2 5 l22 -2 q23 -4 23 23 q3 31 5 81 l-9 0 q-9 -98 -98 -131 l-3 4 q70 51 75 127 l-10 0 q-9 -61 -72 -100 l-4 3 q38 39 48 89 l-2 -1 q-12 9 -17 16 q-2 4 1 6 q7 1 12 8 l52 54 l-64 0 l0 7 l63 0 l13 14 l29 -17 q3 -1 3 -4 q0 -5 -14 -8 l-63 -61 l55 0 l9 16 l29 -13 q0 0 1 -1 q4 -1 4 -4 q0 -5 -11 -10 q0 -5 -1 -17 q-2 -44 -4 -64 q0 -43 -48 -44 ZM78 105 l0 -45 l15 0 l0 45 l-15 0 ZM39 105 l0 -45 l15 0 l0 45 l-15 0 ZM93 149 l-15 0 l0 -38 l15 0 l0 38 ZM39 149 l0 -38 l15 0 l0 38 l-15 0 Z" /><glyph glyph-name="" unicode="&#x7591;" d="M208 -16 q-55 0 -68 43 q-13 -31 -49 -53 l-3 3 q31 34 34 80 q2 15 0 33 l33 -5 q4 -1 4 -3 q0 -5 -10 -8 q-1 -18 -7 -39 q9 -12 21 -18 l0 95 l-48 0 l0 6 l94 0 l12 15 l26 -18 q4 -2 4 -5 q0 -5 -13 -6 q-16 -13 -34 -25 l-3 2 l11 31 l-23 0 l0 -50 l15 0 l14 18 l23 -17 q3 -1 3 -3 q-1 -3 -8 -4 l-47 0 l0 -46 q6 0 11 0 q22 0 49 3 l0 -4 q-12 -7 -14 -26 q-18 0 -27 1 ZM13 56 l-3 2 q16 33 19 61 l30 -7 q4 -1 4 -3 q0 -4 -11 -6 q-1 -1 -2 -4 q-2 -3 -3 -6 l33 0 l10 15 l20 -14 q3 -1 2 -3 q0 -3 -8 -4 l-27 0 l0 -6 q0 -15 -1 -27 l8 0 l11 15 l20 -14 q3 -2 3 -4 q0 -3 -9 -3 l-35 0 q0 -4 -2 -11 q-1 -2 -1 -3 q33 -11 33 -25 q-1 -12 -12 -13 q-7 0 -9 6 q-5 15 -14 26 q-13 -33 -59 -53 l-3 3 q36 31 42 70 l-41 0 l0 6 l42 0 q1 12 1 27 l0 6 l-9 0 q-11 -17 -29 -31 ZM48 121 q-26 -1 -24 24 l0 20 q0 11 -1 37 l30 -3 q3 0 4 -3 q0 -5 -9 -9 l0 -18 q35 16 48 29 l22 -16 q2 -2 2 -4 q0 -3 -5 -3 q-3 0 -8 1 q-21 -9 -59 -15 l0 -10 q-1 -10 8 -9 l34 0 q8 0 12 8 l8 19 l3 0 l1 -17 q1 -6 5 -9 q5 -4 5 -8 q0 -14 -30 -14 l-46 0 ZM182 120 q-7 0 -11 8 q-8 17 -30 37 l2 2 q28 -6 41 -13 l14 27 l-73 0 l0 7 l70 0 l13 15 l33 -19 q3 -3 3 -6 q1 -5 -14 -5 q-19 -14 -40 -23 q8 -7 8 -13 q-1 -16 -16 -17 Z" /><glyph glyph-name="" unicode="&#x767d;" d="M186 -25 l0 25 l-120 0 l0 -14 q1 -7 -6 -8 q-11 -3 -26 -3 q0 11 1 30 q1 26 1 52 l0 52 q0 4 0 23 q-1 27 -1 34 l37 -10 l19 0 q5 33 5 51 l42 -8 q4 0 5 -3 q0 -6 -13 -9 q-12 -16 -27 -31 l77 0 l11 19 l33 -15 q4 -1 4 -4 q1 -5 -11 -12 l0 -60 q0 -53 2 -98 q0 -7 -7 -8 q-9 -3 -26 -3 ZM66 78 l0 -74 l120 0 l0 74 l-120 0 ZM186 150 l-120 0 l0 -66 l120 0 l0 66 Z" /><glyph glyph-name="" unicode="&#x77ed;" d="M10 106 l-3 2 q15 35 19 69 q3 15 3 30 l37 -7 q3 0 3 -3 q0 -5 -12 -8 q-2 -9 -9 -25 q-2 -5 -3 -7 l31 0 l12 16 l22 -16 q2 -1 2 -3 q0 -3 -7 -3 l-29 0 l0 -29 q0 -13 -1 -27 l5 0 l12 17 l22 -17 l0 58 l36 -9 l46 0 l9 15 l29 -12 q3 -1 3 -4 q0 -5 -10 -10 l0 -17 q0 -3 0 -13 q1 -21 1 -31 q0 -5 -4 -5 q-11 -3 -24 -3 l0 13 l-59 0 l0 -5 q0 -6 -4 -6 q-10 -3 -23 -3 l0 27 q-1 -1 -6 -1 l-33 0 q-2 -15 -5 -27 q44 -18 42 -39 q-2 -16 -17 -19 q-8 -1 -9 10 q-5 28 -17 44 q-10 -40 -59 -77 l-3 3 q41 57 41 105 l-40 0 l0 6 l41 0 q0 10 0 19 l0 37 l-8 0 q-12 -24 -31 -45 ZM200 138 l-59 0 l0 -55 l59 0 l0 55 ZM92 -16 l0 7 l81 0 q12 35 15 70 l34 -9 q6 -1 5 -4 q0 -6 -13 -7 q-12 -29 -30 -50 l23 0 l15 18 l27 -18 q2 -2 2 -3 q0 -4 -8 -4 l-151 0 ZM145 -3 q-9 0 -10 8 q-3 31 -13 52 l2 2 q40 -27 39 -46 q-1 -15 -18 -16 ZM100 178 l0 7 l102 0 l15 19 l26 -19 q3 -1 3 -3 q0 -3 -7 -4 l-139 0 Z" /><glyph glyph-name="" unicode="&#x795e;" d="M105 23 q1 32 1 58 l0 38 q0 18 -1 47 l33 -9 l18 0 q0 38 -1 49 l36 -3 q4 0 4 -3 q0 -5 -10 -10 l0 -33 l21 0 l9 15 l28 -10 q4 -2 4 -5 q0 -4 -10 -12 l0 -40 q0 -33 1 -66 q0 -7 -6 -8 q-9 -3 -21 -3 l0 16 l-26 0 q0 -28 0 -58 q0 -7 -6 -8 q-13 -3 -24 -2 q1 24 1 68 l-24 0 l0 -10 q0 -7 -6 -8 q-10 -3 -21 -3 ZM87 55 q-8 0 -8 8 q-2 16 -11 30 l0 -107 q0 -8 -7 -9 q-15 -2 -22 -1 q0 8 1 24 q1 43 1 55 l0 21 q-15 -13 -33 -25 l-3 4 q43 51 59 96 l-56 0 l0 6 l54 0 l10 14 l27 -16 q4 -1 4 -4 q1 -4 -11 -8 q-2 -4 -7 -11 q-10 -18 -17 -27 l0 -5 q33 -14 32 -29 q-1 -15 -13 -16 ZM185 66 l0 -16 l26 0 l0 48 l-26 0 l0 -32 ZM211 151 l-26 0 l0 -46 l26 0 l0 46 ZM156 50 l0 16 l0 32 l-24 0 l0 -48 l24 0 ZM156 105 l0 40 l0 6 l-24 0 l0 -46 l24 0 ZM49 164 q-9 0 -10 10 q-3 18 -11 31 l2 2 q37 -9 37 -25 q-1 -17 -18 -18 Z" /><glyph glyph-name="" unicode="&#x79d1;" d="M101 60 q-7 0 -9 8 q-3 16 -14 35 l0 -117 q0 -8 -8 -9 q-12 -2 -20 -2 q0 13 1 51 q0 33 0 42 l0 7 q-18 -31 -42 -53 l-3 3 q29 52 40 100 l-35 0 l0 7 l40 0 l0 40 q-6 -1 -21 -3 q-11 -1 -17 -2 l-1 4 q51 18 76 38 l26 -20 q3 -2 3 -5 q0 -3 -7 -4 q-4 0 -8 2 q-6 -1 -16 -4 q-5 -1 -8 -2 l0 -44 l7 0 l14 18 l24 -18 q2 -1 2 -3 q0 -3 -9 -4 l-38 0 l0 -17 q39 -15 38 -31 q-1 -16 -15 -17 ZM101 39 l-1 7 l85 13 l0 94 q0 34 -1 53 l36 -3 q0 0 1 0 q4 -2 4 -4 q1 -4 -11 -10 l0 -126 l2 1 l10 21 l24 -16 q2 0 2 -2 q0 -3 -7 -5 l-31 -5 q0 -41 1 -71 q0 -8 -6 -8 q-12 -3 -25 -3 q1 26 1 77 l-84 -13 ZM150 68 q-7 -1 -11 9 q-9 22 -24 39 l1 2 q49 -10 49 -31 q-1 -18 -15 -19 ZM158 133 q-7 0 -11 10 q-8 23 -22 39 l2 2 q47 -11 47 -33 q-2 -16 -16 -18 Z" /><glyph glyph-name="" unicode="&#x7a7a;" d="M47 68 l0 6 l115 0 l17 21 l29 -19 q3 -3 3 -4 q-1 -4 -9 -4 l-60 0 l0 -74 l53 0 l19 20 l30 -20 q3 0 2 -3 q0 -4 -8 -4 l-225 0 l0 7 l98 0 l0 74 l-64 0 ZM26 122 q-13 1 -14 15 q0 9 7 14 q15 10 23 34 l2 0 q3 -9 3 -15 l70 0 q-3 3 -5 8 q-3 15 -12 27 l2 2 q44 -3 43 -22 q0 -9 -11 -15 l63 0 l13 16 l30 -20 q6 -2 5 -5 q0 -6 -14 -6 q-11 -8 -30 -19 q-3 -1 -5 -2 l-4 3 l9 27 l-153 0 q2 -8 0 -14 q-1 -26 -22 -28 ZM16 76 l-2 4 q38 26 54 45 q10 12 16 25 l31 -17 q4 -2 4 -4 q0 -6 -15 -6 q-32 -29 -88 -47 ZM211 87 q-4 -1 -11 7 q-24 26 -68 48 l2 4 q43 -8 67 -18 q24 -11 24 -24 q-1 -15 -14 -17 Z" /><glyph glyph-name="" unicode="&#x7ade;" d="M9 -26 l-1 5 q83 25 84 70 l-15 0 l0 -5 q1 -6 -5 -7 q-12 -3 -23 -3 q0 8 1 23 q0 11 0 16 l0 15 q0 9 -1 22 l35 -8 l91 0 l9 15 l28 -12 q3 -2 3 -5 q0 -5 -9 -10 l0 -8 q0 -4 0 -12 q1 -13 1 -21 q1 -6 -5 -8 q-12 -2 -23 -2 l0 10 l-13 0 l0 -31 q0 -11 9 -11 l28 0 q12 0 17 13 l12 37 l3 0 l2 -34 q0 -9 5 -13 q6 -4 6 -10 q-3 -16 -37 -17 l-49 0 q-26 -1 -25 22 l0 44 l-15 0 q-3 -65 -113 -75 ZM179 95 l-102 0 l0 -39 l102 0 l0 39 ZM11 122 l0 6 l75 0 q-6 3 -6 8 q-4 18 -13 30 l2 2 q39 -8 39 -24 q0 -12 -12 -16 l49 0 q8 19 11 40 l33 -7 q4 -1 4 -4 q1 -4 -11 -6 q-10 -13 -24 -23 l44 0 l16 21 l28 -20 q2 -1 2 -3 q-1 -3 -8 -4 l-229 0 ZM25 172 l0 6 l91 0 q-3 3 -3 7 q-3 13 -10 23 l1 2 q41 -3 39 -20 q0 -7 -8 -12 l51 0 l14 19 l28 -18 q1 -1 1 -3 q0 -3 -8 -4 l-196 0 Z" /><glyph glyph-name="" unicode="&#x7b5b;" d="M198 -1 q0 15 -15 19 l0 -33 q1 -8 -6 -9 q-4 -1 -12 -1 q-5 -1 -8 -1 q1 14 1 70 l0 38 l-20 0 l0 -74 q1 -8 -7 -8 q-7 0 -18 0 q1 30 1 54 l0 10 q0 16 0 34 l29 -9 l15 0 l0 30 l-49 0 l0 6 l98 0 l13 18 l24 -18 q3 -1 2 -3 q0 -3 -7 -3 l-56 0 l0 -30 l19 0 l8 14 l27 -12 q3 -1 3 -4 q1 -3 -11 -9 l0 -20 q0 -3 0 -11 q1 -13 1 -23 q3 -24 -32 -25 ZM21 -28 l-2 3 q58 40 53 97 l0 32 q0 18 -1 30 l32 -3 q4 0 4 -3 q0 -3 -9 -8 l0 -39 q6 -81 -77 -109 ZM14 119 l-4 3 q21 32 30 58 q5 14 6 27 l36 -8 q4 0 4 -4 q0 -4 -12 -7 q-4 -6 -7 -12 l33 0 l12 17 l24 -17 q1 -1 1 -2 q0 -3 -7 -4 l-47 0 q26 -9 25 -20 q-1 -15 -16 -16 q-9 0 -9 9 q-3 16 -9 27 l-12 0 q-16 -27 -48 -51 ZM192 132 q-9 0 -9 8 q-5 20 -10 30 l-9 0 q-13 -21 -40 -40 l-3 2 q15 27 23 51 q3 12 5 24 l35 -8 q4 0 4 -3 q1 -4 -12 -7 q-1 -1 -2 -4 q-2 -3 -6 -9 l38 0 l14 18 l25 -18 q0 0 1 -1 q1 0 1 -1 q0 -3 -7 -4 l-58 0 q26 -11 26 -22 q-1 -14 -16 -16 ZM26 18 q1 25 1 43 l0 26 q0 20 0 30 l29 -3 q3 0 3 -3 q0 -4 -9 -8 l0 -75 q1 -7 -6 -9 q-9 -1 -18 -1 ZM205 82 l-22 0 l0 -59 l13 0 q9 -2 9 9 l0 50 Z" /><glyph glyph-name="" unicode="&#x7bc7;" d="M56 -26 q1 29 1 42 l0 27 q-12 -34 -48 -65 l-3 2 q33 51 32 111 l0 13 q0 3 0 9 q-1 12 -1 22 l36 -8 l46 0 q-2 2 -2 5 q-1 13 -8 25 l2 2 q3 -1 9 -2 q5 -2 7 -2 q12 20 17 33 q3 9 6 18 l32 -8 q3 0 3 -3 q1 -5 -11 -7 q-1 -2 -4 -5 q-3 -3 -4 -5 l40 0 l15 19 l25 -18 q2 -1 2 -3 q-1 -3 -8 -4 l-61 0 q25 -8 24 -19 q-1 -14 -15 -15 q-9 0 -10 9 q-2 11 -10 25 l-8 0 q-10 -10 -25 -21 q9 -6 8 -13 q0 -7 -5 -11 l52 0 l9 14 l28 -11 q4 -2 4 -5 q0 -3 -9 -9 l0 -6 q0 -9 0 -18 q0 -6 -4 -6 q-12 -3 -23 -3 l0 5 l-130 0 q0 -7 -1 -15 l26 -5 l108 0 l9 15 l28 -12 q3 -1 3 -4 q0 -6 -9 -11 l0 -13 q0 -4 0 -20 q1 -20 1 -24 q1 -19 -31 -23 q0 18 -20 22 l0 -5 q0 -7 -6 -8 q-10 -3 -20 -2 l0 40 l-22 0 l0 -31 q0 -8 -7 -9 q-9 -1 -19 -1 l0 41 l-22 0 l0 -39 q0 -7 -7 -8 q-11 -3 -20 -2 ZM195 120 l-130 0 l0 -26 l130 0 l0 26 ZM87 135 q-9 0 -10 10 q-3 16 -9 27 l-10 0 q-22 -25 -48 -42 l-2 3 q21 28 29 49 q6 12 9 24 l33 -8 q3 -1 3 -3 q1 -5 -11 -8 q-1 -1 -4 -4 q-2 -3 -4 -5 l35 0 l14 18 l22 -18 q1 0 1 -3 q0 -3 -8 -3 l-51 0 q28 -9 27 -22 q-2 -13 -16 -15 ZM202 61 l-23 0 l0 -31 l23 0 l0 31 ZM83 61 l0 -31 l22 0 l0 31 l-22 0 ZM131 61 l0 -31 l22 0 l0 31 l-22 0 ZM195 1 q7 -1 7 7 l0 15 l-23 0 l0 -22 l16 0 Z" /><glyph glyph-name="" unicode="&#x7c7b;" d="M18 137 l0 6 l94 0 l0 21 q0 4 0 20 q-1 16 -1 21 l35 -3 q5 0 5 -3 q0 -6 -11 -10 l0 -46 l16 0 q14 27 18 50 l33 -12 q4 -1 4 -4 q-1 -5 -12 -5 q-13 -15 -35 -29 l34 0 l15 19 l27 -18 q1 -1 1 -3 q0 -3 -8 -4 l-93 0 l0 -12 q87 -6 86 -30 q-1 -15 -15 -17 q-6 0 -10 5 q-22 23 -61 39 q0 -18 0 -29 q1 -6 -5 -7 q-12 -2 -24 -2 q0 4 0 15 q1 16 1 24 q-39 -37 -102 -55 l-2 4 q53 29 81 65 l-71 0 ZM227 -24 q-68 15 -89 71 l-5 0 q-16 -63 -125 -72 l-1 3 q73 24 91 64 q2 3 2 5 l-88 0 l0 7 l90 0 q4 13 4 26 l38 -3 q4 -1 4 -4 q-1 -6 -11 -9 q0 -2 -1 -5 q0 -3 -1 -5 l67 0 l16 21 l28 -21 q2 0 2 -3 q0 -3 -8 -4 l-95 0 q33 -36 103 -40 l0 -4 q-14 -3 -21 -27 ZM73 146 q-8 0 -10 9 q-6 20 -16 32 l2 2 q41 -7 41 -26 q-2 -15 -17 -17 Z" /><glyph glyph-name="" unicode="&#x7cbe;" d="M110 174 l0 6 l46 0 q0 12 0 27 l33 -3 q5 0 5 -3 q0 -4 -10 -10 l0 -11 l21 0 l13 18 l24 -17 q2 -1 2 -3 q0 -3 -8 -4 l-52 0 l0 -23 l14 0 l13 17 l24 -16 q2 -2 2 -4 q0 -3 -8 -4 l-45 0 l0 -25 l26 0 l14 18 l25 -17 q3 -2 2 -4 q0 -3 -8 -3 l-129 0 q0 -1 0 -2 q0 -3 -7 -4 l-33 0 l0 -19 q35 -14 35 -31 q-1 -15 -15 -16 q-6 0 -8 8 q-4 19 -12 34 l0 -97 q0 -7 -6 -8 q-10 -3 -21 -3 q0 14 1 40 q0 29 1 41 q-13 -24 -40 -50 l-3 2 q29 51 39 99 l-36 0 l0 7 l40 0 l0 46 q0 16 -2 46 l33 -3 q4 0 5 -3 q1 -4 -11 -10 l0 -62 q15 33 18 53 l27 -13 q3 -3 3 -4 q1 -5 -11 -6 q-15 -20 -37 -38 l0 -6 l9 0 l11 14 l12 -9 l51 0 l0 25 l-40 0 l0 7 l40 0 l0 16 l0 7 l-47 0 ZM114 -24 q1 25 1 53 l0 33 q0 15 0 40 l33 -8 l50 0 l8 13 l28 -10 q3 -2 3 -5 q1 -4 -9 -10 l0 -28 q0 -4 0 -17 q1 -23 1 -36 q2 -22 -38 -26 q4 17 -28 24 l0 2 l27 0 q12 -1 11 9 l0 16 l-59 0 l0 -40 q0 -7 -6 -8 q-7 -2 -22 -2 ZM142 57 l0 -24 l59 0 l0 24 l-59 0 ZM201 87 l-59 0 l0 -23 l59 0 l0 23 ZM29 122 q-6 0 -7 10 q-2 26 -11 49 l2 2 q31 -26 30 -45 q-1 -15 -14 -16 Z" /><glyph glyph-name="" unicode="&#x7ea2;" d="M108 165 l0 7 l92 0 l16 19 l25 -19 q1 -1 1 -3 q0 -3 -8 -4 l-50 0 l0 -165 l20 0 l17 20 l27 -20 q2 -1 2 -2 q0 -4 -8 -4 l-153 0 l0 6 l64 0 l0 165 l-45 0 ZM33 36 q-3 0 -4 3 l-11 31 q15 1 23 11 q13 18 25 39 q-21 -7 -40 -13 q-1 -9 -6 -9 q-1 0 -3 4 l-9 28 q12 2 16 10 q13 19 19 41 q4 14 7 27 l38 -13 q3 -1 3 -4 q0 -3 -13 -7 q-19 -28 -44 -53 l38 1 q8 15 11 31 l36 -15 q4 -2 4 -4 q0 -6 -14 -8 q-19 -26 -56 -63 l64 4 l2 -6 q-25 -9 -81 -26 q-1 -10 -5 -9 ZM24 -18 q-3 0 -4 4 l-12 32 q1 0 3 0 q9 1 25 4 q45 8 84 17 l2 -5 q-51 -28 -91 -42 q-2 -11 -7 -10 Z" /><glyph glyph-name="" unicode="&#x7eaf;" d="M202 49 l0 10 l-23 0 l0 -41 q0 -12 11 -12 l18 0 q11 0 15 13 l12 37 l3 0 l1 -32 q-1 -9 6 -14 q6 -3 5 -10 q-1 -17 -38 -18 l-26 0 q-34 0 -34 31 l0 46 l-20 0 l-8 -12 q-14 6 -25 15 q-4 4 0 6 q5 3 5 9 l0 29 q0 20 -1 28 l33 -3 q3 0 3 -3 q0 -4 -10 -9 l0 -54 l23 0 l0 84 l0 6 l-57 0 l0 7 l57 0 q0 34 -1 44 l36 -3 q3 -1 3 -4 q1 -4 -11 -9 l0 -28 l27 0 l15 20 l26 -19 q1 -1 1 -3 q0 -5 -8 -5 l-61 0 l0 -90 l23 0 l0 39 q0 18 0 30 l32 -2 q4 -1 4 -4 q-1 -5 -11 -8 l0 -22 q0 -5 1 -22 q0 -15 0 -18 q0 -5 -4 -6 q-1 0 -4 -1 q-12 -2 -18 -2 ZM28 38 q-1 0 -3 4 l-10 30 q12 0 17 9 q14 17 24 41 q-9 -4 -30 -10 q1 0 -3 -1 q-1 -10 -6 -10 q-2 0 -3 4 q0 -1 0 1 l-7 28 q8 1 12 9 q9 15 18 38 q4 14 7 27 l33 -11 q3 -1 3 -4 q0 -5 -13 -7 q-22 -35 -38 -52 l33 0 q5 11 9 26 l30 -12 q5 -2 5 -5 q-1 -5 -12 -5 q-24 -38 -50 -65 l51 6 l1 -5 q-35 -16 -62 -26 q-1 -10 -6 -10 ZM21 -14 q-1 0 -3 4 l-12 32 q13 0 29 3 q16 3 55 12 q6 2 10 3 l2 -4 q-40 -26 -75 -38 q0 -12 -6 -12 Z" /><glyph glyph-name="" unicode="&#x7ecf;" d="M29 34 q-3 0 -3 4 l-11 32 q16 2 22 10 q20 28 27 41 q-7 -3 -19 -7 q-12 -5 -19 -8 q-1 -10 -6 -10 q-1 0 -3 4 l-9 29 q10 2 16 12 q14 25 18 42 q2 5 4 16 q1 5 2 8 l35 -12 q4 -1 3 -4 q1 -4 -13 -7 q-18 -28 -40 -54 l36 0 q4 8 7 15 q6 12 7 22 l36 -12 q3 -1 3 -4 q1 -5 -14 -7 q-25 -38 -60 -74 l63 9 l1 -4 q-42 -19 -77 -30 q-1 -11 -6 -11 ZM230 82 q-7 0 -13 9 q-16 23 -42 40 q-31 -32 -88 -49 l-2 3 q69 39 90 97 l-66 0 l0 6 l63 0 l11 15 l32 -15 q4 -2 4 -5 q0 -5 -13 -10 q-12 -21 -27 -38 q71 -15 67 -35 q-1 -17 -16 -18 ZM110 65 l0 6 l75 0 l14 19 l27 -18 q0 0 1 -1 q0 -1 0 -2 q1 -3 -7 -4 l-42 0 l0 -68 l25 0 l16 19 l28 -18 q2 -2 2 -3 q-1 -5 -8 -5 l-158 0 l0 7 l67 0 l0 68 l-40 0 ZM24 -21 q-3 0 -4 4 l-12 32 q2 0 5 1 q7 0 24 3 q27 6 78 18 l1 -4 q-53 -30 -87 -41 q0 -13 -5 -13 Z" /><glyph glyph-name="" unicode="&#x7f16;" d="M63 -16 l-4 3 q15 22 27 49 q-30 -20 -57 -33 q0 -11 -6 -10 q-1 0 -3 4 l-12 31 q12 1 26 4 q21 4 55 13 q11 35 11 89 l0 9 q-3 -2 -10 -2 q-22 -34 -46 -61 l47 6 l2 -5 q-34 -18 -57 -26 q-1 -10 -6 -10 q-1 0 -3 5 l-10 29 q11 2 16 9 q11 16 19 34 q-10 -5 -29 -11 q-1 -10 -6 -10 q-1 0 -3 5 l-8 29 q10 2 14 10 q9 17 15 38 q3 12 5 24 l35 -10 q3 0 3 -3 q0 -5 -13 -8 q-20 -33 -35 -51 l28 -1 q1 1 1 3 q1 1 1 2 q2 4 5 13 q3 8 4 12 l29 -13 q1 -1 2 -1 l0 1 q0 17 -1 35 l34 -9 l26 0 q-3 3 -3 6 q-2 14 -10 24 l1 2 q37 -4 36 -18 q0 -9 -8 -14 l28 0 l9 15 l27 -11 q4 -2 4 -5 q0 -3 -10 -10 l0 -11 q0 -2 0 -12 q1 -11 1 -14 q1 -7 -5 -8 q-1 0 -4 -1 q-10 -2 -17 -1 l0 10 l-82 0 q0 -13 -1 -25 l18 -5 l67 0 l9 15 l25 -12 q4 -1 4 -4 q0 -5 -9 -11 l0 -35 q0 -24 0 -51 q3 -22 -29 -24 q-2 17 -12 21 q0 -1 -1 -1 q-1 -1 -1 -1 q-5 -1 -15 -1 l0 42 l-12 0 l0 -37 q0 -7 -6 -8 q-7 -1 -14 -1 l0 46 l-13 0 l0 -51 q0 -7 -6 -8 q-6 -2 -17 -2 l0 73 q-14 -35 -50 -65 ZM127 144 l0 -9 l81 0 l0 36 l-81 0 l0 -27 ZM214 92 l-13 0 l0 -47 l13 0 l0 47 ZM169 92 l0 -47 l12 0 l0 47 l-12 0 ZM136 92 l0 -47 l13 0 l0 47 l-13 0 ZM207 0 q8 0 7 7 l0 30 l-13 0 l0 -34 q0 -1 0 -3 l6 0 Z" /><glyph glyph-name="" unicode="&#x7f18;" d="M223 -15 q-26 22 -29 80 q-6 -3 -13 -6 q6 -14 5 -35 q2 -48 -41 -51 q0 20 -26 25 l1 2 l23 0 q18 0 18 23 l0 6 q-38 -27 -103 -43 l-1 3 q61 29 100 68 q0 6 -2 10 q-32 -26 -77 -44 l-2 4 q39 26 68 60 q0 1 -1 3 q-1 1 -2 2 q-24 -19 -63 -34 l-2 4 q35 23 55 53 l-47 0 l0 6 l89 0 l3 22 l-45 0 l-8 -10 q-4 2 -13 7 q-7 3 -10 5 q-3 3 0 5 q5 3 6 9 l7 24 q2 6 4 22 q0 1 0 2 l31 -5 q4 0 4 -3 q0 -4 -10 -8 l-2 -7 l37 0 l10 15 l27 -14 q3 -1 3 -3 q1 -4 -11 -10 l-7 -51 l11 0 l13 16 l23 -15 q2 -1 2 -4 q0 -3 -8 -3 l-74 0 q-9 -10 -20 -19 q21 -11 31 -29 q30 27 36 41 l27 -18 q3 -1 3 -4 q-1 -6 -13 -3 q-15 -9 -30 -16 q16 -42 52 -58 l-2 -3 q-14 -3 -27 -21 ZM20 100 q-3 0 -4 4 l-9 28 q9 1 12 8 q12 22 19 45 q3 10 5 22 l32 -10 q4 -1 4 -3 q0 -5 -13 -8 q-19 -33 -36 -53 l26 1 q0 1 0 1 q6 15 8 26 l30 -10 q4 -1 4 -4 q0 -3 -10 -6 q-19 -34 -45 -63 l46 6 l1 -4 q-20 -12 -55 -27 q-1 -11 -6 -11 q-3 1 -4 4 l-11 30 q14 1 19 10 q9 17 17 35 q-12 -6 -24 -10 q-1 -11 -6 -11 ZM24 -10 q-2 0 -4 4 q2 -4 -1 1 l-12 27 q38 9 81 27 l2 -3 q-23 -21 -61 -46 q-1 -8 -5 -10 ZM181 178 l-43 0 l-8 -29 l47 0 l4 29 Z" /><glyph glyph-name="" unicode="&#x7f8e;" d="M19 161 l0 7 l69 0 q-7 0 -9 9 q-4 17 -14 28 l2 2 q40 -5 41 -22 q-1 -16 -17 -17 l54 0 q8 21 9 41 l34 -8 q4 0 5 -3 q1 -6 -11 -7 q-14 -15 -25 -23 l40 0 l15 19 l27 -19 q1 -1 1 -3 q1 -3 -8 -4 l-92 0 l0 -29 l41 0 l14 19 l26 -18 q3 -1 3 -3 q-1 -4 -9 -4 l-75 0 l0 -32 l61 0 l16 21 l28 -20 q2 -1 2 -3 q-1 -4 -9 -4 l-226 0 l0 6 l99 0 l0 32 l-75 0 l0 6 l75 0 l0 29 l-92 0 ZM225 -23 q-71 15 -89 70 l-4 0 q-19 -64 -124 -72 l-1 4 q77 23 94 68 l-83 0 l0 7 l85 0 q0 0 0 1 q1 2 1 3 q2 8 2 27 l40 -5 q3 0 3 -4 q-1 -6 -12 -9 q-1 -7 -3 -13 l59 0 l15 20 l29 -20 q1 -1 1 -3 q1 -3 -8 -4 l-87 0 q34 -33 105 -38 l-1 -4 q-13 -4 -22 -28 Z" /><glyph glyph-name="" unicode="&#x804c;" d="M8 178 l0 7 l80 0 l13 17 l24 -17 q1 0 1 -1 q0 4 0 10 l35 -10 l41 0 l10 15 l27 -12 q5 -2 4 -5 q0 -5 -9 -10 l0 -28 q0 -23 0 -62 q1 -6 -5 -7 q-11 -3 -23 -3 l0 11 l-51 0 l0 -5 q0 -6 -7 -7 q-10 -3 -22 -3 q0 17 1 41 q0 16 0 24 l0 24 q0 11 -1 23 q-2 -2 -7 -2 l-18 0 l0 -126 q14 3 27 6 l1 -4 q-7 -4 -22 -10 q-4 -2 -6 -3 q0 -6 0 -23 q1 -20 1 -31 q1 -7 -6 -9 q-10 -2 -20 -2 l0 54 q-6 -2 -18 -7 q-10 -4 -34 -12 q-1 -10 -6 -11 q-3 1 -4 4 l-9 31 q4 0 14 1 q3 1 5 1 l0 141 l-16 0 ZM206 177 l-51 0 l0 -86 l51 0 l0 86 ZM229 -19 q-9 0 -12 11 q-6 34 -28 69 l3 2 q55 -33 56 -62 q-1 -19 -19 -20 ZM112 -25 l-3 3 q23 39 31 58 q6 15 8 28 l34 -13 q3 -1 3 -3 q0 -6 -13 -7 q-22 -41 -60 -66 ZM50 178 l0 -41 l26 0 l0 41 l-26 0 ZM50 131 l0 -40 l26 0 l0 40 l-26 0 ZM50 41 q12 3 26 6 l0 37 l-26 0 l0 -43 Z" /><glyph glyph-name="" unicode="&#x80b2;" d="M165 -24 q2 22 -37 25 l1 4 l36 -1 q12 0 11 11 l0 17 l-98 0 l0 -47 q0 -6 -4 -7 q-12 -3 -26 -3 q1 21 1 59 l0 22 q0 15 0 53 l34 -9 l90 0 l9 16 l30 -13 q4 -1 3 -4 q1 -4 -9 -11 l0 -24 q0 -34 1 -62 q3 -22 -42 -26 ZM11 168 l0 6 l106 0 q-1 1 -2 4 q-1 1 -1 2 q-1 16 -9 26 l2 2 q38 -3 39 -21 q0 -7 -9 -13 l61 0 l17 21 l29 -20 q2 -1 2 -3 q-1 -3 -8 -4 l-109 0 q-27 -19 -57 -32 q58 2 105 2 q-12 11 -28 20 l1 3 q77 -12 75 -35 q-1 -15 -14 -16 q-6 0 -12 7 q-5 6 -11 12 q-69 -10 -139 -15 q0 -9 -6 -10 q-2 0 -4 5 l-7 27 q22 1 28 7 q14 10 23 25 l-72 0 ZM176 94 l-98 0 l0 -25 l98 0 l0 25 ZM78 63 l0 -25 l98 0 l0 25 l-98 0 Z" /><glyph glyph-name="" unicode="&#x8350;" d="M9 172 l0 7 l62 0 l0 2 l0 4 q0 2 0 8 q-1 9 -1 13 l33 -2 q4 -1 4 -4 q1 -4 -10 -9 l0 -12 l54 0 q0 11 0 27 l32 -2 q5 0 5 -4 q0 -4 -10 -8 l0 -5 q0 -3 0 -8 l25 0 l15 20 l28 -20 q0 0 1 -1 q1 0 1 -1 q0 -5 -7 -5 l-63 0 q0 -6 1 -14 q1 -5 -5 -6 q-10 -3 -23 -3 l0 23 l-54 0 l0 -10 l33 -10 q4 0 4 -4 q1 -4 -13 -7 q-3 -4 -6 -9 l85 0 l14 20 l28 -19 q3 -1 2 -3 q0 -3 -7 -4 l-126 0 q-14 -22 -32 -39 l0 -102 q0 -7 -6 -8 q-1 0 -2 0 q-15 -3 -22 -3 q0 12 1 44 q0 29 0 39 l0 6 q-17 -12 -41 -25 l-2 4 q25 21 43 44 l0 17 l13 -2 q9 13 16 25 l-66 0 l0 6 l70 0 q5 9 9 20 q-5 -1 -15 -2 q-5 -1 -7 -1 q0 12 0 23 l-61 0 ZM86 45 l0 6 l64 0 q0 11 -1 26 l26 -3 l12 21 l-86 0 l0 7 l84 0 l12 14 l31 -19 q4 -3 4 -6 q-1 -6 -14 -4 q-12 -8 -36 -19 q1 1 -3 -1 l0 -13 l0 -3 l25 0 l14 20 l28 -19 q3 -1 2 -3 q0 -3 -7 -4 l-62 0 q0 -7 1 -23 q0 -14 0 -19 q4 -26 -43 -28 q2 25 -33 27 l0 4 l34 -2 q14 -1 12 12 l0 23 l0 6 l-64 0 Z" /><glyph glyph-name="" unicode="&#x884c;" d="M101 113 l0 6 l100 0 l17 23 l30 -21 q1 -1 1 -4 q1 -3 -8 -4 l-36 0 l0 -36 q0 -2 1 -16 q1 -44 1 -58 q3 -24 -49 -27 q0 22 -32 27 l0 3 l37 -1 q12 0 12 12 l0 96 l-74 0 ZM8 57 l-2 3 q40 46 61 94 l33 -14 q6 -1 5 -4 q0 -6 -14 -6 q-13 -16 -27 -30 l14 -1 q3 0 3 -3 q-1 -6 -10 -9 l0 -101 q0 -8 -7 -9 q-14 -2 -24 -2 q2 62 2 81 l0 24 q-16 -12 -34 -23 ZM9 124 l-2 3 q40 45 53 80 l33 -13 q4 -1 4 -4 q1 -4 -14 -6 q-30 -39 -74 -60 ZM110 176 l0 7 l83 0 l15 20 l26 -19 q3 -1 2 -4 q0 -3 -8 -4 l-118 0 Z" /><glyph glyph-name="" unicode="&#x8868;" d="M24 162 l0 7 l89 0 q0 5 0 17 q-1 14 -1 21 l35 -3 q5 0 6 -3 q0 -6 -12 -10 l0 -22 l50 0 l15 19 l26 -19 q2 -1 2 -3 q-1 -3 -8 -4 l-85 0 l0 -29 l42 0 l14 19 l26 -19 q0 0 1 -1 q1 0 1 -1 q0 -3 -8 -4 l-76 0 l0 -30 l59 0 l17 21 l28 -21 q2 0 2 -3 q0 -3 -8 -4 l-97 0 q17 -28 34 -42 q20 21 26 39 l28 -18 q4 -2 4 -6 q-1 -4 -14 -2 q-16 -12 -38 -19 q25 -20 67 -31 l-2 -6 q-21 -1 -32 -23 q-62 29 -80 108 q-16 -18 -36 -31 l0 -44 l54 11 l2 -6 q-32 -19 -74 -37 q0 -12 -5 -11 q-3 0 -4 4 l-13 29 q12 4 11 17 l0 20 q-25 -12 -61 -24 l-2 4 q63 39 89 68 l-86 0 l0 7 l103 0 l0 30 l-75 0 l0 6 l75 0 l0 29 l-89 0 Z" /><glyph glyph-name="" unicode="&#x89c6;" d="M193 -18 q-27 -1 -26 23 l0 39 q-20 -46 -89 -70 l-2 3 q84 58 80 142 l0 9 q0 5 -1 17 q0 11 0 15 l33 -3 q6 0 5 -3 q-1 -6 -11 -9 l0 -22 q0 -22 -4 -42 l18 -2 q4 0 4 -3 q0 -5 -7 -8 l0 -54 q-1 -10 8 -9 l8 0 q10 -1 13 11 l12 36 l3 0 l1 -31 q0 -10 6 -14 q5 -4 5 -9 q-1 -15 -29 -16 l-27 0 ZM110 56 q0 15 1 52 q0 18 0 22 l0 23 q0 30 -1 45 l32 -9 l57 0 l10 15 l27 -12 q3 -1 3 -4 q0 -4 -9 -11 l0 -37 q0 -5 0 -22 q1 -32 1 -48 q0 -4 -4 -6 q-9 -3 -23 -3 l0 121 l-68 0 l0 -117 q0 -4 -4 -6 q-15 -3 -22 -3 ZM88 50 q-7 0 -9 8 q-3 16 -12 31 l0 -103 q0 -8 -7 -9 q-12 -2 -20 -2 q1 36 1 80 l0 19 q-14 -13 -35 -25 l-2 3 q46 54 62 99 l-57 0 l0 6 l54 0 l13 16 l26 -17 q3 -1 3 -4 q0 -5 -12 -8 q-11 -23 -26 -43 l0 -6 q36 -12 35 -29 q-1 -15 -14 -16 ZM49 163 q-8 0 -11 10 q-3 21 -10 32 l2 2 q36 -11 36 -27 q-1 -16 -17 -17 Z" /><glyph glyph-name="" unicode="&#x8a00;" d="M178 -25 l0 18 l-104 0 l0 -8 q0 -6 -5 -7 q-5 -1 -17 -2 q-7 -1 -9 -1 q1 18 1 42 l0 14 q0 10 0 34 l36 -9 l94 0 l10 17 l30 -12 q0 0 1 0 q4 -2 4 -4 q1 -4 -11 -12 l0 -20 q0 -23 1 -40 q1 -6 -5 -7 q-4 -1 -15 -2 q-8 -1 -11 -1 ZM178 50 l-104 0 l0 -51 l104 0 l0 51 ZM11 159 l0 7 l105 0 q-4 2 -5 9 q-2 14 -12 30 l1 2 q45 -5 45 -25 q0 -12 -11 -16 l65 0 l16 21 l30 -20 q2 -1 2 -3 q1 -5 -8 -5 l-228 0 ZM41 123 l0 6 l130 0 l15 19 l28 -18 q1 -1 2 -2 q1 -1 1 -1 q0 -3 -9 -4 l-167 0 ZM41 86 l0 7 l130 0 l16 19 l27 -18 q1 -1 2 -3 q1 -1 1 -1 q0 -3 -9 -4 l-167 0 Z" /><glyph glyph-name="" unicode="&#x8bdd;" d="M87 122 l0 6 l63 0 l0 45 q-9 -1 -28 -1 q-19 -1 -29 -1 l-1 4 q56 11 81 20 q18 6 32 14 l26 -21 q3 -2 3 -5 q0 -4 -6 -4 q-6 0 -9 2 q-10 -2 -28 -4 q-9 -1 -13 -2 l0 -47 l27 0 l15 21 l26 -20 q3 -1 2 -3 q0 -3 -8 -4 l-62 0 l0 -45 l16 0 l8 16 l30 -12 q6 -2 5 -6 q1 -3 -11 -10 l0 -30 q0 -2 0 -10 q1 -23 1 -39 q1 -6 -5 -7 q-9 -3 -24 -3 l0 15 l-67 0 l0 -5 q0 -7 -7 -8 q-11 -3 -22 -2 q1 36 1 51 l0 13 q-2 -3 -7 -7 q-24 -26 -39 -38 q1 -13 -5 -13 q-2 0 -4 3 l-18 26 q10 7 10 18 l0 78 l-32 0 l0 7 l28 0 l10 16 l27 -12 q5 -2 5 -4 q1 -4 -10 -10 l0 -76 l35 18 q0 23 -1 40 l34 -9 l14 0 l0 45 l-63 0 ZM198 70 l-67 0 l0 -72 l67 0 l0 72 ZM57 152 q-8 0 -10 10 q-6 21 -18 40 l1 2 q47 -11 47 -33 q-3 -17 -20 -19 Z" /><glyph glyph-name="" unicode="&#x8bf4;" d="M93 73 q0 7 1 25 q0 15 0 20 l0 17 q0 6 -1 18 q0 8 0 11 l35 -10 l35 0 q11 34 12 53 l33 -7 q4 -1 4 -4 q1 -5 -11 -7 q-11 -18 -28 -35 l21 0 l9 16 l28 -12 q5 -2 5 -4 q1 -5 -10 -11 l0 -16 q0 -26 1 -40 q0 -6 -5 -6 q-10 -3 -24 -3 l0 11 l-77 0 l0 -7 q0 -4 -6 -6 q-12 -3 -22 -3 ZM48 -7 q-3 0 -4 3 l-17 26 q12 6 11 17 l0 74 l-31 0 l0 6 l26 0 l9 16 l30 -13 q4 -1 4 -4 q1 -4 -10 -11 l0 -69 l39 19 l3 -4 q-29 -31 -55 -50 q1 -10 -5 -10 ZM194 -19 q-28 0 -28 24 l0 38 q0 18 0 34 l32 -4 q6 0 5 -3 q1 -4 -9 -8 l0 -46 q-1 -12 10 -11 l9 0 q8 -1 11 10 l9 35 l4 -1 l2 -29 q0 -9 5 -13 q6 -3 5 -8 q-1 -18 -33 -18 l-22 0 ZM198 148 l-77 0 l0 -53 l77 0 l0 53 ZM56 -29 l-2 4 q62 31 67 80 q1 7 1 24 l33 -5 q5 -1 5 -4 q0 -4 -9 -7 q1 0 -1 -1 q-4 -74 -94 -91 ZM57 152 q-8 -1 -12 11 q-6 21 -18 39 l1 2 q48 -12 47 -34 q-2 -16 -18 -18 ZM136 157 q-9 0 -10 9 q-5 25 -14 39 l2 2 q39 -16 39 -32 q-2 -16 -17 -18 Z" /><glyph glyph-name="" unicode="&#x8bfb;" d="M226 -24 q-6 0 -11 6 q-19 21 -50 36 q-22 -28 -104 -43 l-3 5 q73 26 88 58 l-60 0 l0 7 q-12 -17 -34 -42 q0 -11 -5 -11 q-2 0 -5 4 l-17 24 q10 6 10 16 l0 74 l-28 0 l0 7 l23 0 l9 16 l28 -12 q4 -2 4 -5 q0 -5 -10 -11 l0 -64 l32 21 l3 -3 q-4 -8 -9 -14 l63 0 q6 15 7 33 q2 21 0 41 l34 -2 q5 -1 5 -4 q-1 -5 -10 -8 l0 -4 q0 -34 -7 -56 l27 0 l15 20 l26 -20 q1 -1 1 -3 q0 -3 -8 -4 l-63 0 q-3 -8 -8 -14 q31 -5 49 -11 q22 -10 22 -21 q-1 -15 -14 -16 ZM89 164 l0 7 l54 0 l0 2 q0 6 -1 20 q0 10 0 13 l34 -3 q4 0 4 -3 q1 -4 -11 -9 l0 -20 l25 0 l14 18 l24 -19 q2 0 2 -2 q0 -3 -8 -4 l-57 0 l0 -31 l37 0 l11 14 l27 -17 q3 -2 3 -4 q0 -6 -12 -6 q-12 -11 -31 -19 l-3 2 l8 24 l-130 0 l0 6 l64 0 l0 31 l-54 0 ZM52 153 q-9 0 -11 11 q-7 23 -18 37 l2 2 q45 -10 45 -31 q-2 -17 -18 -19 ZM116 52 q-6 0 -9 6 q-6 15 -17 27 l1 3 q37 -3 38 -20 q-1 -15 -13 -16 ZM134 84 q-6 0 -9 6 q-3 12 -17 27 l2 2 q36 -3 36 -19 q-1 -15 -12 -16 Z" /><glyph glyph-name="" unicode="&#x8d39;" d="M191 140 l0 7 l-26 0 l0 -22 l39 0 l9 14 l26 -13 q3 -1 3 -3 q1 -4 -9 -9 q0 -3 -1 -11 q1 5 -1 -2 q-3 -12 -26 -15 l1 0 q1 -1 2 -1 q2 -1 2 -4 q1 -3 -10 -9 l0 -10 q0 -3 0 -11 q1 -15 1 -25 q0 -6 -4 -7 q-16 -2 -24 -2 l0 60 l-91 0 l0 -57 q0 -6 -5 -7 q-3 0 -8 -1 q-11 -1 -16 -2 q1 14 1 44 l0 7 q0 6 0 19 q-3 -1 -9 -2 q-8 -3 -29 -8 l-2 5 q48 20 64 45 l-16 0 l-7 -9 q-13 5 -23 12 q-3 2 1 5 q3 3 4 7 l2 10 q1 10 1 16 l32 -9 l17 0 q0 4 0 10 l0 12 l-65 0 l0 5 l65 0 l0 2 q0 11 -1 23 q0 -2 0 3 l33 -3 q3 0 3 -3 q0 -5 -9 -8 l0 -14 l25 0 q0 7 -1 19 q0 7 0 9 l33 -3 q3 0 3 -3 q0 -4 -10 -8 l0 -14 l22 0 l9 15 l25 -11 q4 -2 4 -4 q1 -4 -8 -9 l0 -5 q0 -6 0 -17 q0 -5 -4 -6 q-10 -2 -22 -2 ZM212 -26 q-8 0 -16 8 q-22 18 -65 30 q-17 -32 -117 -39 l-1 4 q105 23 99 70 q0 10 0 21 l35 -4 q6 0 5 -3 q0 -5 -11 -9 q-1 -20 -7 -35 q51 -3 69 -9 q23 -4 23 -17 q-1 -15 -14 -17 ZM140 88 l0 32 l-33 0 q-11 -22 -37 -33 l20 -5 l78 0 l10 15 l18 -8 q-1 12 -22 16 l1 4 l21 -1 q8 -2 9 4 q1 2 1 4 q1 2 1 4 l-42 0 l0 -23 q0 -6 -5 -7 q-10 -2 -20 -2 ZM114 147 q-1 -12 -5 -22 l31 0 l0 22 l-26 0 ZM191 174 l-26 0 l0 -22 l26 0 l0 22 ZM115 162 q0 -2 -1 -6 q0 -3 0 -4 l26 0 l0 22 l-25 0 l0 -12 ZM81 125 q6 10 7 22 l-24 0 l-3 -22 l20 0 Z" /><glyph glyph-name="" unicode="&#x8d77;" d="M16 157 l0 7 l42 0 l0 3 q0 28 -1 38 l35 -3 q6 0 5 -3 q1 -4 -11 -9 l0 -26 l11 0 l13 18 l23 -18 q2 -1 2 -3 q-1 -3 -8 -4 l-41 0 l0 -39 l9 0 l14 19 l25 -18 q2 -1 2 -3 q0 -3 -7 -4 l-38 0 l0 -42 l6 0 l12 17 l23 -16 q1 -1 1 -3 q-1 -5 -7 -5 l-35 0 l0 -46 q25 -6 66 -6 q51 0 93 6 l0 -5 q-14 -4 -18 -29 q-27 0 -73 0 q-104 -3 -117 61 q-9 -42 -35 -69 l-3 2 q15 46 16 93 q0 19 -1 26 l32 -4 q5 0 5 -3 q0 -3 -10 -8 q0 -11 -2 -27 q8 -15 20 -24 l0 82 l-55 0 l0 6 l49 0 l0 39 l-42 0 ZM164 31 q-27 0 -27 27 l0 42 q0 17 -1 34 l35 -10 l27 0 l0 56 l-64 0 l0 7 l59 0 l9 16 l30 -13 q4 -1 4 -4 q0 -5 -10 -11 l0 -22 q0 -27 1 -45 q0 -5 -5 -5 q-5 -1 -16 -2 q-5 -1 -8 -1 l0 18 l-33 0 l0 -50 q-1 -13 11 -12 l27 0 q13 0 17 12 l12 31 l4 -1 l0 -29 q0 -8 5 -11 q5 -3 5 -9 q-4 -17 -37 -18 l-45 0 Z" /><glyph glyph-name="" unicode="&#x8fd1;" d="M82 19 l-4 3 q28 47 26 104 l0 22 q0 5 0 19 q-1 13 -1 18 l32 -8 q30 7 51 16 q15 6 23 12 l25 -22 q3 -2 2 -4 q0 -3 -4 -4 q-6 0 -12 2 q-32 -6 -89 -10 l0 -40 l0 -3 l73 0 l15 20 l27 -20 q0 0 1 -1 q1 0 1 -2 q0 -3 -8 -3 l-40 0 l0 -35 q0 -4 0 -21 q1 -27 1 -37 q0 -6 -5 -7 q-4 0 -12 -1 q-8 -1 -13 -2 q1 21 1 67 l0 36 l-41 0 q3 -59 -49 -99 ZM25 -24 q-3 0 -4 4 l-16 29 q20 8 33 17 l0 74 l-30 0 l0 6 l25 0 l10 17 l30 -14 q4 -2 4 -4 q0 -4 -12 -10 l0 -64 q-2 -24 74 -25 q46 -1 111 6 l0 -4 q-14 -6 -14 -24 q-49 -3 -83 -3 q-75 -1 -95 40 q-10 -15 -28 -32 q0 -12 -5 -13 ZM54 144 q-9 0 -12 10 q-5 24 -19 44 l1 3 q51 -15 49 -36 q-2 -19 -19 -21 Z" /><glyph glyph-name="" unicode="&#x9009;" d="M87 117 l-5 2 q15 41 17 76 l31 -6 q4 -1 4 -4 q1 -4 -11 -7 q-3 -9 -8 -18 l27 0 l0 1 q0 8 -1 24 q0 14 0 21 l35 -3 q3 0 4 -3 q1 -6 -11 -9 l0 -31 l21 0 l13 19 l25 -18 q1 -1 1 -4 q0 -3 -7 -3 l-53 0 l0 -43 l32 0 l14 20 l26 -20 q2 0 2 -2 q0 -5 -8 -5 l-41 0 l0 -46 q0 -9 7 -9 l8 0 q7 -1 11 10 l9 28 l3 0 l2 -25 q1 -6 5 -10 q6 -3 5 -10 q-1 -16 -33 -17 l-21 0 q-25 -2 -23 24 l0 55 l-21 0 q1 -66 -68 -88 l-2 3 q43 34 42 85 l-39 0 l0 7 l63 0 l0 43 l-30 0 q-7 -14 -25 -37 ZM25 -26 q-1 0 -4 4 l-16 30 q15 3 32 15 l0 75 l-29 0 l0 6 l24 0 l9 17 l32 -13 q4 -3 4 -4 q1 -4 -12 -11 l0 -62 q-2 -25 74 -25 q50 0 111 7 l0 -4 q-14 -9 -15 -27 q-32 -2 -82 -2 q-72 -2 -95 39 q-13 -18 -28 -32 q0 -13 -5 -13 ZM53 144 q-8 0 -11 10 q-7 26 -21 44 l2 3 q50 -15 49 -37 q-1 -18 -19 -20 Z" /><glyph glyph-name="" unicode="&#x90fd;" d="M105 -10 l0 15 l-44 0 l0 -11 q0 -7 -6 -8 q-11 -3 -20 -2 q0 12 1 33 q0 13 0 17 l0 25 l0 3 q-5 -2 -14 -7 q-10 -5 -15 -8 l-2 4 q17 12 30 24 q0 11 0 23 l19 -5 q12 12 24 26 l-68 0 l0 7 l47 0 l0 35 l0 3 l-38 0 l0 6 l38 0 q0 5 0 15 q-1 13 -1 21 l32 -3 q4 0 5 -3 q1 -4 -11 -9 l0 -21 l4 0 l9 13 l16 -12 l1 -1 q6 12 10 25 l28 -13 q1 0 2 -1 q1 0 1 0 q0 8 0 15 l32 -9 l22 0 l11 15 l29 -16 q4 -2 4 -4 q1 -5 -13 -9 l-37 -59 q46 -30 45 -60 q2 -41 -42 -44 q2 20 -25 26 l0 -52 q1 -7 -5 -7 q-7 -2 -22 -2 q2 47 2 83 l0 62 q0 0 -2 0 q-2 -1 -3 -1 l-45 0 q-14 -16 -29 -29 l27 0 l8 14 l26 -11 q4 -2 4 -4 q1 -4 -9 -10 l0 -30 q0 -25 1 -49 q1 -6 -5 -7 q-10 -3 -22 -3 ZM210 180 l-31 0 l0 -140 l25 -1 q13 1 14 16 q1 30 -24 58 l16 67 ZM61 45 l0 -33 l44 0 l0 33 l-44 0 ZM67 83 q-1 0 -3 -2 q-2 -1 -3 -2 l0 -28 l44 0 l0 32 l-38 0 ZM142 173 q-15 -27 -32 -47 l11 0 l13 16 l20 -15 l0 15 q0 6 0 17 q-1 12 -1 17 q-4 -3 -11 -3 ZM106 161 q2 2 2 3 q-1 0 -3 0 l-23 0 l0 -38 l1 0 q12 15 23 35 Z" /><glyph glyph-name="" unicode="&#x91d1;" d="M68 114 l0 2 q-24 -15 -58 -31 l-2 5 q56 40 83 87 q10 17 13 32 l39 -10 q6 -2 5 -4 q1 -6 -13 -7 q0 0 -1 -1 q48 -45 118 -53 l-1 -4 q-14 -6 -20 -32 q-71 27 -101 83 q-24 -37 -57 -60 l67 0 l14 19 l26 -19 q3 -1 2 -3 q0 -3 -7 -4 l-34 0 l0 -38 l50 0 l17 22 l28 -21 q2 -1 2 -3 q0 -3 -8 -4 l-89 0 l0 -76 l56 0 l18 22 l31 -22 q2 0 2 -2 q0 -5 -8 -5 l-228 0 l0 7 l101 0 l0 76 l-91 0 l0 6 l91 0 l0 38 l-45 0 ZM159 -3 l-3 2 q21 41 24 64 l39 -13 q3 -2 3 -4 q0 -6 -14 -6 q-18 -24 -49 -43 ZM70 0 q-8 0 -10 10 q-5 29 -17 50 l2 2 q46 -21 45 -42 q-1 -18 -20 -20 Z" /><glyph glyph-name="" unicode="&#x9500;" d="M112 -25 q1 26 1 67 l0 56 q0 30 -1 42 l35 -9 l14 0 l0 29 q0 30 -1 46 l33 -3 q6 0 5 -3 q1 -4 -11 -9 l0 -60 l19 0 l9 14 l27 -11 q4 -1 4 -4 q0 -4 -8 -9 q-1 -1 -2 -2 l0 -52 q0 -5 0 -22 q1 -28 1 -43 q1 -22 -39 -27 q2 22 -33 25 l1 4 l33 -1 q10 0 10 11 l0 29 l-69 0 l0 -60 q0 -6 -5 -6 q-8 -2 -23 -2 ZM9 89 l-3 3 q17 40 24 85 q2 18 2 30 l35 -6 q3 0 3 -3 q0 -4 -10 -8 q-2 -7 -6 -18 q-2 -6 -3 -9 l20 0 l11 16 l22 -15 q2 -1 2 -4 q-1 -3 -7 -3 l-51 0 q-7 -19 -16 -34 l38 0 l11 15 l20 -15 q2 -1 2 -3 q0 -3 -8 -4 l-28 0 l0 -42 l5 0 l12 17 l22 -17 q3 -1 2 -3 q0 -3 -8 -3 l-33 0 l0 -48 l38 15 l2 -4 q-26 -26 -50 -42 q0 -12 -5 -11 q-1 0 -4 4 l-15 24 q9 6 9 15 l0 47 l-37 0 l0 6 l37 0 l0 42 l-14 0 q-6 -11 -19 -27 ZM140 84 l0 -34 l69 0 l0 34 l-69 0 ZM209 124 l-69 0 l0 -34 l69 0 l0 34 ZM196 139 l-4 2 q18 37 20 54 l30 -11 q3 -1 3 -3 q1 -5 -12 -8 q-14 -15 -37 -34 ZM135 143 q-7 0 -9 9 q-3 20 -15 39 l2 2 q37 -15 38 -32 q-1 -17 -16 -18 Z" /><glyph glyph-name="" unicode="&#x95e8;" d="M29 -25 q1 31 1 77 l0 62 q0 32 -1 55 l34 -2 q5 -1 5 -4 q1 -4 -10 -8 l0 -170 q1 -7 -5 -7 q-12 -3 -24 -3 ZM186 -26 q4 22 -35 27 l0 4 l37 -2 q10 0 10 11 l0 161 l-71 0 l0 7 l66 0 l9 17 l31 -13 q4 -2 4 -5 q0 -6 -10 -12 l0 -82 q0 -48 1 -84 q2 -26 -42 -29 ZM91 156 q-9 0 -12 11 q-5 19 -19 37 l2 2 q47 -9 48 -30 q-2 -19 -19 -20 Z" /><glyph glyph-name="" unicode="&#x95f4;" d="M149 19 l0 16 l-45 0 l0 -12 q0 -6 -6 -7 q-2 0 -7 -1 q-8 -1 -14 -2 q0 33 0 55 l0 38 q0 18 0 40 l34 -10 l34 0 l9 16 l27 -12 q4 -2 4 -5 q0 -5 -9 -10 l0 -38 q0 -39 1 -58 q0 -6 -4 -7 q-9 -3 -24 -3 ZM189 -25 q-1 25 -33 29 l1 4 l34 -1 q14 -1 13 12 l0 156 l-91 0 l0 7 l85 0 l10 16 l30 -13 q4 -1 4 -5 q0 -5 -10 -11 l0 -46 q0 -5 1 -39 q1 -64 1 -81 q3 -25 -45 -28 ZM23 -25 q0 14 1 44 q0 24 0 33 l0 64 q0 23 -1 46 l35 -3 q3 0 4 -3 q0 -4 -10 -9 l0 -161 q-1 -7 -7 -8 q-10 -3 -22 -3 ZM149 130 l-45 0 l0 -41 l45 0 l0 41 ZM104 83 l0 -41 l45 0 l0 41 l-45 0 ZM81 157 q-11 -1 -13 10 q-4 20 -18 37 l2 2 q49 -8 48 -30 q-2 -17 -19 -19 Z" /><glyph glyph-name="" unicode="&#x9605;" d="M195 -26 q0 20 -31 26 l1 3 l30 -1 q12 0 12 12 l0 165 l-92 0 l0 6 l87 0 l9 16 l29 -12 q4 -2 4 -5 q0 -5 -10 -11 l0 -51 q0 -4 0 -28 q1 -60 1 -86 q4 -30 -40 -34 ZM71 70 q1 10 1 32 l0 13 q0 9 0 20 l32 -8 l25 0 q9 25 9 42 l30 -8 q3 -1 2 -3 q1 -4 -10 -6 q-10 -13 -22 -25 l15 0 l6 13 l26 -9 q4 -1 4 -4 q1 -4 -8 -9 l0 -11 q0 -3 0 -9 q1 -11 1 -17 q0 -4 -4 -6 q-9 -1 -22 -3 l0 8 l-59 0 q1 -6 -5 -7 q-12 -3 -21 -3 ZM21 -25 q2 51 2 78 l0 73 q0 30 -1 45 l33 -3 q5 0 5 -3 q-1 -6 -11 -9 l0 -170 q0 -8 -7 -9 q-10 -2 -21 -2 ZM153 10 q-22 -1 -21 24 l0 15 q0 9 0 22 l27 -3 q4 0 4 -2 q1 -5 -9 -8 l0 -18 q-1 -10 8 -9 l9 0 q6 0 9 9 l8 22 l2 0 l2 -19 q2 -9 5 -10 q5 -4 5 -8 q0 -15 -30 -15 l-19 0 ZM156 122 l-59 0 l0 -36 l59 0 l0 36 ZM54 0 l-2 2 q37 20 40 52 q0 1 0 3 q2 9 1 15 l28 -5 q6 0 5 -3 q-1 -5 -9 -7 q-2 -46 -63 -57 ZM81 165 q-7 0 -10 11 q-4 13 -16 29 l1 2 q44 -5 43 -23 q-2 -17 -18 -19 ZM107 131 q-7 0 -9 7 q-3 17 -9 26 l2 2 q30 -7 30 -22 q-1 -12 -14 -13 Z" /><glyph glyph-name="" unicode="&#x9650;" d="M222 -19 q-25 19 -37 38 q-35 -23 -56 -34 q0 -12 -6 -12 q-2 0 -5 5 l-14 29 q11 3 10 17 l0 124 q0 28 -1 49 l36 -10 l47 0 l9 16 l28 -12 q4 -2 4 -5 q0 -5 -10 -10 l0 -41 q0 -2 0 -10 q1 -16 1 -27 q0 -7 -6 -8 q0 0 -1 0 l23 -18 q4 -3 4 -4 q1 -6 -14 -4 q-4 -2 -11 -5 q-16 -8 -27 -12 q18 -21 55 -37 l-2 -5 q-17 -3 -27 -24 ZM20 -24 q2 82 2 118 l0 48 q-1 36 -2 53 l34 -8 l18 0 l10 14 l27 -14 q4 -2 4 -5 q0 -6 -10 -8 q-19 -34 -38 -57 q39 -28 38 -57 q0 -37 -36 -42 q1 21 -19 27 l0 -60 q0 -6 -6 -7 q-7 -2 -22 -2 ZM75 180 l-27 0 l0 -131 l17 -1 q12 0 12 17 q1 24 -19 51 l17 64 ZM141 137 l0 -36 l59 0 l0 36 l-59 0 ZM200 180 l-59 0 l0 -36 l59 0 l0 36 ZM181 26 q-14 28 -20 68 l-20 0 l0 -79 l40 11 ZM200 87 l0 7 l-33 0 q15 -30 24 -41 q19 17 29 36 q-3 -1 -10 -1 q-7 -1 -10 -1 Z" /><glyph glyph-name="" unicode="&#x9752;" d="M49 -25 q1 26 1 58 l0 28 q0 17 0 42 l35 -8 l87 0 l9 15 l31 -12 q4 -2 4 -5 q1 -5 -11 -11 l0 -22 q0 -2 0 -12 q1 -30 1 -47 q2 -22 -44 -26 q4 22 -37 26 l1 4 l39 -1 q12 0 11 11 l0 14 l-97 0 l0 -43 q1 -7 -6 -8 q-10 -3 -24 -3 ZM20 174 l0 6 l90 0 q0 5 -1 16 q0 8 0 11 l38 -3 q4 0 5 -3 q1 -6 -11 -10 l0 -11 l53 0 l15 20 l27 -19 q3 -2 2 -4 q0 -3 -8 -3 l-89 0 l0 -22 l42 0 l15 17 l25 -17 q3 -1 3 -3 q0 -4 -8 -4 l-77 0 l0 -24 l60 0 l16 20 l29 -19 q3 -1 2 -3 q0 -4 -8 -4 l-230 0 l0 6 l100 0 l0 24 l-77 0 l0 7 l77 0 l0 16 l0 6 l-90 0 ZM176 88 l-97 0 l0 -23 l97 0 l0 23 ZM79 59 l0 -23 l97 0 l0 23 l-97 0 Z" /><glyph glyph-name="" unicode="&#x9898;" d="M8 94 l0 6 l85 0 l13 16 l23 -15 q3 -1 2 -3 q0 -4 -8 -4 l-34 0 l0 -35 l5 0 l11 15 l23 -15 q0 0 1 -1 q1 0 1 -1 q-2 -4 -8 -5 l-33 0 l0 -38 q22 -7 66 -7 q48 0 95 6 l-1 -5 q-12 -5 -18 -26 q-7 0 -27 0 q-30 -1 -47 -1 q-96 -4 -115 52 q-8 -34 -33 -58 l-4 2 q15 37 16 79 q2 14 0 24 l31 -4 q6 -1 5 -4 q0 -4 -10 -9 q0 -3 -1 -10 q-1 -6 -2 -10 q9 -11 19 -19 l0 70 l-55 0 ZM25 111 q0 7 1 26 q0 16 0 22 l0 12 q0 16 0 30 l30 -8 l28 0 l8 13 l27 -11 q1 -1 2 -1 q1 -1 1 -3 q0 -4 -10 -9 l0 -9 q0 -34 1 -49 q0 -6 -4 -6 q-12 -3 -21 -3 l0 7 l-38 0 l0 -1 q1 -6 -5 -7 q-5 -1 -14 -2 q-4 -1 -6 -1 ZM129 187 l0 6 l80 0 l13 17 l24 -16 q1 -1 1 -3 q0 -3 -7 -4 l-44 0 q-10 -17 -24 -31 l32 0 l8 14 l26 -11 q4 -1 4 -4 q1 -3 -10 -10 l0 -22 q0 -26 1 -47 q0 -6 -5 -7 q-9 -3 -20 -3 l0 84 l-53 0 l0 -80 q0 -6 -4 -7 q-9 -3 -19 -3 q1 19 1 49 l0 23 q0 17 0 31 l28 -7 l2 0 q2 17 2 31 l-36 0 ZM223 16 q-7 0 -11 8 q-10 20 -27 35 q-14 -29 -64 -45 l-3 4 q56 33 51 88 l0 7 q0 11 0 22 l29 -2 q4 -1 4 -4 q0 -3 -9 -8 l0 -12 q0 -25 -6 -43 q50 -15 50 -35 q-1 -13 -14 -15 ZM50 154 l0 -25 l38 0 l0 25 l-38 0 ZM88 187 l-38 0 l0 -26 l38 0 l0 26 Z" /><glyph glyph-name="" unicode="&#x9c9c;" d="M100 40 l0 10 l-50 0 l0 -7 q0 -5 -5 -6 q-14 -2 -19 -2 l0 96 q-1 -1 -4 -4 q-2 -2 -9 -9 l-3 3 q28 51 31 86 l33 -8 q4 -1 4 -4 q0 -3 -12 -7 q-1 -1 -2 -4 q-1 -2 -5 -10 l18 0 l11 14 l25 -16 q3 -1 3 -4 q0 -5 -13 -7 q-3 -3 -10 -10 q-10 -10 -15 -14 l19 0 l7 13 l25 -11 q3 -1 3 -3 q1 -3 -8 -10 l0 -77 q1 -4 -6 -7 q-10 -2 -18 -2 ZM128 149 l0 6 l59 0 q10 35 12 54 l32 -9 q6 -1 5 -4 q0 -5 -12 -5 q-13 -21 -29 -36 l18 0 l12 16 l22 -15 q2 -1 2 -3 q0 -3 -8 -4 l-45 0 l0 -46 l11 0 l13 18 l25 -17 q1 -1 1 -3 q0 -3 -7 -4 l-43 0 l0 -25 l0 -22 l11 0 l15 20 l27 -19 q2 -1 2 -3 q0 -3 -8 -4 l-46 0 q0 -32 0 -60 q1 -6 -5 -8 q-12 -1 -25 -1 q1 23 1 69 l-41 0 l0 6 l41 0 q1 14 1 19 l0 28 l-36 0 l0 6 l36 0 l0 46 l-41 0 ZM25 -18 q-3 0 -4 4 l-10 33 q15 0 29 1 q26 3 70 10 q14 2 22 3 l1 -5 q-52 -23 -102 -34 q0 -12 -6 -12 ZM161 158 q-8 0 -10 10 q-6 22 -15 36 l1 2 q42 -11 41 -31 q-1 -16 -17 -17 ZM56 168 q-8 -13 -20 -26 l19 -5 l12 0 l13 31 l-24 0 ZM85 91 l0 -35 l15 0 l0 35 l-15 0 ZM100 132 l-15 0 l0 -35 l15 0 l0 35 ZM50 91 l0 -35 l15 0 l0 35 l-15 0 ZM50 132 l0 -35 l15 0 l0 35 l-15 0 Z" /></font>
</defs>
</svg>
